<?xml version="1.0" encoding="UTF-8" standalone="no"?>
<!-- Created with Inkscape (http://www.inkscape.org/) -->

<svg
   xmlns:dc="http://purl.org/dc/elements/1.1/"
   xmlns:cc="http://creativecommons.org/ns#"
   xmlns:rdf="http://www.w3.org/1999/02/22-rdf-syntax-ns#"
   xmlns:svg="http://www.w3.org/2000/svg"
   xmlns="http://www.w3.org/2000/svg"
   xmlns:sodipodi="http://sodipodi.sourceforge.net/DTD/sodipodi-0.dtd"
   xmlns:inkscape="http://www.inkscape.org/namespaces/inkscape"
   width="131.06215mm"
   height="131.06215mm"
   viewBox="0 0 131.06215 131.06215"
   version="1.1"
   id="svg5"
   inkscape:version="0.92.5 (2060ec1f9f, 2020-04-08)"
   sodipodi:docname="arduino.svg">
  <metadata
     id="metadata9">
    <rdf:RDF>
      <cc:Work
         rdf:about="">
        <dc:format>image/svg+xml</dc:format>
        <dc:type
           rdf:resource="http://purl.org/dc/dcmitype/StillImage" />
        <dc:title></dc:title>
      </cc:Work>
    </rdf:RDF>
  </metadata>
  <sodipodi:namedview
     id="namedview7"
     pagecolor="#ffffff"
     bordercolor="#666666"
     borderopacity="1.0"
     inkscape:pageshadow="2"
     inkscape:pageopacity="0.0"
     inkscape:pagecheckerboard="0"
     inkscape:document-units="mm"
     showgrid="false"
     fit-margin-top="0"
     fit-margin-left="0"
     fit-margin-right="0"
     fit-margin-bottom="0"
     inkscape:zoom="1.4467452"
     inkscape:cx="289.61561"
     inkscape:cy="254.01847"
     inkscape:window-width="1884"
     inkscape:window-height="1031"
     inkscape:window-x="2352"
     inkscape:window-y="223"
     inkscape:window-maximized="0"
     inkscape:current-layer="arduino" />
  <defs
     id="defs2">
    <inkscape:path-effect
       effect="fillet_chamfer"
       id="path-effect1902"
       is_visible="true"
       lpeversion="1"
       satellites_param="F,0,0,1,0,0,0,1 @ F,0,0,1,0,0,0,1 @ F,0,0,1,0,0,0,1 @ F,0,0,1,0,0,0,1 @ F,0,0,1,0,0,0,1 @ F,0,0,1,0,0,0,1 @ F,0,0,1,0,0,0,1 @ F,0,0,1,0,0,0,1 @ F,0,0,1,0,0,0,1 @ F,0,0,1,0,0,0,1 @ F,0,0,1,0,0,0,1 @ F,0,0,1,0,0,0,1 @ F,0,0,1,0,0,0,1 @ F,0,0,1,0,0,0,1 | F,0,0,1,0,0,0,1 @ F,0,0,1,0,0,0,1 @ F,0,0,1,0,0,0,1 @ F,0,0,1,0,0,0,1 @ F,0,0,1,0,0,0,1 @ F,0,0,1,0,0,0,1 @ F,0,0,1,0,0,0,1 @ F,0,0,1,0,0,0,1 | F,0,0,1,0,0,0,1 @ F,0,0,1,0,0,0,1 @ F,0,0,1,0,0,0,1 @ F,0,0,1,0,0,0,1 @ F,0,0,1,0,0,0,1 @ F,0,0,1,0,0,0,1 @ F,0,0,1,0,0,0,1 @ F,0,0,1,0,0,0,1 | F,0,1,1,0,0,0,1 @ F,0,1,1,0,0.18989058,0,1 @ F,0,0,1,0,0.18989058,0,1 @ F,0,1,1,0,0.18989058,0,1 @ F,0,1,1,0,0.18989058,0,1 @ F,0,1,1,0,0.18989058,0,1 @ F,0,1,1,0,0.18989058,0,1 @ F,0,1,1,0,0.18989058,0,1 @ F,0,1,1,0,0.18989058,0,1 @ F,0,1,1,0,0.18989058,0,1 @ F,0,1,1,0,0.18989058,0,1 @ F,0,1,1,0,0.18989058,0,1 @ F,0,1,1,0,0,0,1 | F,0,0,1,0,0.21223064,0,1 @ F,0,0,1,0,0.21223064,0,1 @ F,0,0,1,0,0.21223064,0,1 @ F,0,0,1,0,0.21223064,0,1"
       unit="px"
       method="auto"
       mode="F"
       radius="0"
       chamfer_steps="1"
       flexible="false"
       use_knot_distance="true"
       apply_no_radius="true"
       apply_with_radius="true"
       only_selected="false"
       hide_knots="false" />
  </defs>
  <g
     inkscape:label="Arduino Icon"
     inkscape:groupmode="layer"
     id="arduino"
     transform="translate(-44.197994,29.354491)">
    <g
       style="fill:#00979c"
       id="g26"
       transform="matrix(4.0931338,0,0,4.0931338,44.197996,-29.310922)">
      <path
         d="m 23.783,23.55 c -2.044,0 -3.8,-0.7 -5.33,-2.1 -0.95,-0.87 -1.733,-1.937 -2.454,-3.046 -0.72,1.1 -1.504,2.175 -2.454,3.046 -1.653,1.515 -3.547,2.197 -5.8,2.087 C 3.476,23.52 0,20.143 0,15.994 0,11.834 3.495,8.45 7.8,8.45 c 2.251888,-0.03915 4.427465,0.8159773 6.05,2.378 0.826,0.77 1.524,1.66 2.16,2.593 0.636,-0.933 1.334,-1.824 2.16,-2.593 1.622535,-1.5620227 3.798112,-2.4171504 6.05,-2.378 4.296,0 7.8,3.384 7.8,7.544 0,4.148 -3.476,7.526 -7.755,7.544 -0.153886,0.0075 -0.307933,0.01112 -0.462,0.011 z m -6.22,-7.656 c 0.853,1.383 1.68,2.67 2.688,3.594 1.138,1.043 2.337,1.472 3.887,1.4 l 0.07,-0.002 c 2.827,0 5.128,-2.2 5.128,-4.88 0,-2.68 -2.3,-4.88 -5.128,-4.88 -1.57826,-0.03615 -3.104763,0.563859 -4.236,1.665 -0.912,0.848 -1.665,1.935 -2.408,3.116 z M 7.8,11.113 c -2.827,0 -5.128,2.2 -5.128,4.88 0,2.68 2.3,4.88 5.128,4.88 l 0.07,0.002 c 1.55,0.082 2.75,-0.347 3.887,-1.4 1.008,-0.924 1.836,-2.2 2.688,-3.594 -0.744,-1.18 -1.497,-2.268 -2.408,-3.116 C 10.817,11.63 9.47,11.1 7.8,11.1 Z m 16.762,3.914 V 13.772891 A 0.18989058,0.18989058 45 0 0 24.372109,13.583 H 23.249891 A 0.18989058,0.18989058 135 0 0 23.06,13.772891 v 1.064218 A 0.18989058,0.18989058 135 0 1 22.870109,15.027 H 21.805891 A 0.18989058,0.18989058 135 0 0 21.616,15.216891 v 1.116218 A 0.18989058,0.18989058 45 0 0 21.805891,16.523 h 1.064218 A 0.18989058,0.18989058 45 0 1 23.06,16.712891 v 1.075218 A 0.18989058,0.18989058 45 0 0 23.249891,17.978 h 1.123218 A 0.18989058,0.18989058 135 0 0 24.563,17.788109 V 16.712891 A 0.18989058,0.18989058 135 0 1 24.752891,16.523 h 1.064218 A 0.18989058,0.18989058 135 0 0 26.007,16.333109 V 15.216891 A 0.18989058,0.18989058 45 0 0 25.817109,15.027 H 24.563 M 5.8402306,15 H 10.161769 A 0.21223064,0.21223064 45 0 1 10.374,15.212231 v 1.117538 A 0.21223064,0.21223064 135 0 1 10.161769,16.542 H 5.8402306 A 0.21223064,0.21223064 45 0 1 5.628,16.329769 V 15.212231 A 0.21223064,0.21223064 135 0 1 5.8402306,15 Z"
         id="path-main"
         inkscape:original-d="m 23.783,23.55 c -2.044,0 -3.8,-0.7 -5.33,-2.1 -0.95,-0.87 -1.733,-1.937 -2.454,-3.046 -0.72,1.1 -1.504,2.175 -2.454,3.046 -1.653,1.515 -3.547,2.197 -5.8,2.087 C 3.476,23.52 0,20.143 0,15.994 0,11.834 3.495,8.45 7.8,8.45 a 8.51,8.51 0 0 1 6.05,2.378 c 0.826,0.77 1.524,1.66 2.16,2.593 0.636,-0.933 1.334,-1.824 2.16,-2.593 A 8.51,8.51 0 0 1 24.22,8.45 c 4.296,0 7.8,3.384 7.8,7.544 0,4.148 -3.476,7.526 -7.755,7.544 a 9.39,9.39 0 0 1 -0.462,0.011 z m -6.22,-7.656 c 0.853,1.383 1.68,2.67 2.688,3.594 1.138,1.043 2.337,1.472 3.887,1.4 l 0.07,-0.002 c 2.827,0 5.128,-2.2 5.128,-4.88 0,-2.68 -2.3,-4.88 -5.128,-4.88 a 5.88,5.88 0 0 0 -4.236,1.665 c -0.912,0.848 -1.665,1.935 -2.408,3.116 z M 7.8,11.113 c -2.827,0 -5.128,2.2 -5.128,4.88 0,2.68 2.3,4.88 5.128,4.88 l 0.07,0.002 c 1.55,0.082 2.75,-0.347 3.887,-1.4 1.008,-0.924 1.836,-2.2 2.688,-3.594 -0.744,-1.18 -1.497,-2.268 -2.408,-3.116 C 10.817,11.63 9.47,11.1 7.8,11.1 Z m 16.762,3.914 V 13.583 H 23.06 v 1.444 h -1.444 v 1.496 h 1.444 v 1.455 h 1.503 v -1.455 h 1.444 V 15.027 H 24.563 M 5.628,15 h 4.746 v 1.542 H 5.628 Z"
         style="fill:#00ba9e;fill-opacity:1"
         inkscape:connector-curvature="0" />
    </g>
  </g>
</svg>
