<?xml version="1.0" encoding="UTF-8" standalone="no"?>
<!-- Created with Inkscape (http://www.inkscape.org/) -->

<svg
   width="133.52982mm"
   height="133.52966mm"
   viewBox="0 0 133.52982 133.52966"
   version="1.1"
   id="svg1008"
   inkscape:version="1.1.1 (3bf5ae0d25, 2021-09-20)"
   sodipodi:docname="chromium.svg"
   xmlns:inkscape="http://www.inkscape.org/namespaces/inkscape"
   xmlns:sodipodi="http://sodipodi.sourceforge.net/DTD/sodipodi-0.dtd"
   xmlns="http://www.w3.org/2000/svg"
   xmlns:svg="http://www.w3.org/2000/svg">
  <sodipodi:namedview
     id="namedview1010"
     pagecolor="#ffffff"
     bordercolor="#666666"
     borderopacity="1.0"
     inkscape:pageshadow="2"
     inkscape:pageopacity="0.0"
     inkscape:pagecheckerboard="0"
     inkscape:document-units="mm"
     showgrid="false"
     inkscape:zoom="0.72337262"
     inkscape:cx="400.20868"
     inkscape:cy="230.17183"
     inkscape:window-width="1920"
     inkscape:window-height="1001"
     inkscape:window-x="-9"
     inkscape:window-y="-9"
     inkscape:window-maximized="1"
     inkscape:current-layer="layer1"
     fit-margin-top="0"
     fit-margin-left="0"
     fit-margin-right="0"
     fit-margin-bottom="0" />
  <defs
     id="defs1005">
    <inkscape:path-effect
       effect="fillet_chamfer"
       id="path-effect1400"
       is_visible="true"
       lpeversion="1"
       satellites_param="F,0,0,1,0,0,0,1 @ F,0,0,1,0,0,0,1 @ F,0,0,1,0,0,0,1 @ F,0,0,1,0,0,0,1 @ F,0,0,1,0,0,0,1 @ F,0,0,1,0,1.6009227,0,1 @ F,0,0,1,0,0,0,1 @ F,0,0,1,0,0,0,1 @ F,0,0,1,0,0,0,1 @ F,0,0,1,0,0,0,1 @ F,0,0,1,0,0,0,1 @ F,0,0,1,0,0,0,1 @ F,0,0,1,0,0,0,1 @ F,0,0,1,0,0,0,1 | F,0,0,1,0,0,0,1 @ F,0,0,1,0,0,0,1 @ F,0,0,1,0,0,0,1 @ F,0,0,1,0,0,0,1 @ F,0,0,1,0,0,0,1 @ F,0,0,1,0,0,0,1 @ F,0,0,1,0,1.8826319,0,1 @ F,0,0,1,0,0,0,1 @ F,0,0,1,0,0,0,1 @ F,0,0,1,0,0,0,1 | F,0,0,1,0,0,0,1 @ F,0,0,1,0,0,0,1 @ F,0,0,1,0,0,0,1 @ F,0,0,1,0,0,0,1 | F,0,0,1,0,1.2801723,0,1 @ F,0,0,1,0,0,0,1 @ F,0,0,1,0,0,0,1 @ F,0,0,1,0,0,0,1 @ F,0,0,1,0,0,0,1 @ F,0,0,1,0,0,0,1 @ F,0,0,1,0,0,0,1 @ F,0,0,1,0,0,0,1 @ F,0,0,1,0,0,0,1 @ F,0,0,1,0,0,0,1 @ F,0,0,1,0,0,0,1 @ F,0,0,1,0,0,0,1 @ F,0,0,1,0,0,0,1 @ F,0,0,1,0,0,0,1 @ F,0,0,1,0,0,0,1 @ F,0,0,1,0,0,0,1 @ F,0,0,1,0,0,0,1 | F,0,0,1,0,0,0,1 @ F,0,0,1,0,0,0,1 @ F,0,0,1,0,0,0,1"
       unit="px"
       method="auto"
       mode="F"
       radius="0"
       chamfer_steps="1"
       flexible="false"
       use_knot_distance="true"
       apply_no_radius="true"
       apply_with_radius="true"
       only_selected="false"
       hide_knots="false" />
  </defs>
  <g
     inkscape:label="Chromium Icon"
     inkscape:groupmode="layer"
     id="chromium"
     transform="translate(-11.874249,-8.9484016)">
    <path
       id="path-main"
       style="fill:#beebf4;fill-opacity:1;stroke-width:0.298057"
       d="m 78.639164,8.9484016 c -7.860362,0 -15.401303,1.3617334 -22.405349,3.8555784 -10.317251,3.674151 -19.464392,9.811175 -26.732216,17.706412 l 0.04237,0.07235 0.0031,-0.0031 22.250703,38.331873 c 0.443873,0.764672 0.935682,0.679218 1.157755,-0.176458 2.92178,-11.257964 13.232527,-19.846975 25.683637,-19.846975 h 61.152856 c -2.06286,-4.470858 -4.64754,-9.038606 -7.68325,-13.096354 0.0116,0.0063 0.023,0.01598 0.0346,0.02224 3.02051,4.046425 5.59382,8.603279 7.64863,13.074137 h 0.0517 c -2.05183,-4.470858 -4.62423,-9.0553 -7.6507,-13.111862 -0.0343,-0.01788 -0.0681,-0.04995 -0.1018,-0.07648 C 119.91288,19.459794 100.50434,8.9484016 78.639164,8.9484016 Z M 24.949937,36.014967 c -3.088272,4.167271 -5.679309,8.680945 -7.720461,13.449307 -3.445243,8.050824 -5.355227,16.915297 -5.355227,26.226307 0,18.686701 7.685495,35.576449 20.064408,47.692179 8.745596,8.55991 19.833929,14.73385 32.216121,17.47181 l 0.0088,-0.0155 22.213095,-38.48896 c 0.519725,-0.90053 0.153134,-1.32791 -0.842513,-1.02898 -2.191097,0.65786 -4.541947,1.06705 -6.894983,1.06705 -10.015018,0 -18.360555,-5.338249 -23.035287,-13.348537 L 24.990762,36.085761 Z m 53.689227,19.652546 c -11.015298,0 -20.029267,9.011343 -20.029267,20.023068 0,11.012022 9.013969,20.023067 20.029267,20.023067 11.015304,0 20.02927,-9.010747 20.02927,-20.023067 0,-11.011725 -9.013966,-20.023068 -20.02927,-20.023068 z m 18.297267,0.946953 c 5.139469,4.975269 8.408599,11.553118 8.408599,19.113837 0,5.006172 -1.33627,9.324565 -3.67006,13.330454 L 71.20086,142.01677 c 0,0 -0.0027,0.0786 -0.0041,0.0786 v 0.007 c 2.444963,0.27421 4.927136,0.37569 7.442438,0.37569 2.039308,0 4.056276,-0.11717 6.050279,-0.29869 2.986807,-0.27009 5.952006,-0.74124 8.875426,-1.41025 29.687647,-6.77817 51.839167,-33.34132 51.839167,-65.073383 0,-3.874446 -0.33393,-7.676026 -0.9679,-11.369849 -0.003,0.0015 -0.005,0.01121 -0.007,0.0124 -0.507,-2.943914 -1.20411,-5.912827 -2.08308,-8.595342 h -0.032 c 0.88911,2.682515 1.59523,5.663341 2.10788,8.643916 h -5.9e-4 c -0.51236,-2.980575 -1.21856,-5.961401 -2.10736,-8.643916 l -45.03502,1.7e-5 c -0.707019,0 -0.850522,0.379779 -0.342569,0.871503 z m -25.739705,85.487564 -0.0031,0.078 h 0.0046 z"
       inkscape:path-effect="#path-effect1400"
       inkscape:original-d="m 78.639164,8.9484016 c -7.860362,0 -15.401303,1.3617334 -22.405349,3.8555784 -10.317251,3.674151 -19.464392,9.811175 -26.732216,17.706412 l 0.04237,0.07235 0.0031,-0.0031 23.054407,39.716435 C 54.938547,58.280795 65.618534,48.888082 78.639164,48.888082 h 61.152856 c -2.06286,-4.470858 -4.64754,-9.038606 -7.68325,-13.096354 0.0116,0.0063 0.023,0.01598 0.0346,0.02224 3.02051,4.046425 5.59382,8.603279 7.64863,13.074137 h 0.0517 c -2.05183,-4.470858 -4.62423,-9.0553 -7.6507,-13.111862 -0.0343,-0.01788 -0.0681,-0.04995 -0.1018,-0.07648 C 119.91288,19.459794 100.50434,8.9484016 78.639164,8.9484016 Z M 24.949937,36.014967 a 66.62056,66.62056 0 0 0 -7.720461,13.449307 c -3.445243,8.050824 -5.355227,16.915297 -5.355227,26.226307 0,18.686701 7.685495,35.576449 20.064408,47.692179 8.745596,8.55991 19.833929,14.73385 32.216121,17.47181 l 0.0088,-0.0155 23.15414,-40.11952 c -2.670294,1.00087 -5.672634,1.66863 -8.678541,1.66863 -10.015018,0 -18.360555,-5.338249 -23.035287,-13.348537 L 24.990762,36.085761 Z m 53.689227,19.652546 c -11.015298,0 -20.029267,9.011343 -20.029267,20.023068 0,11.012022 9.013969,20.023067 20.029267,20.023067 11.015304,0 20.02927,-9.010747 20.02927,-20.023067 0,-11.011725 -9.013966,-20.023068 -20.02927,-20.023068 z m 17.359664,0.07545 c 5.676202,5.06697 9.346202,11.974458 9.346202,19.98534 0,5.006172 -1.33627,9.324565 -3.67006,13.330454 L 71.20086,142.01677 c 0,0 -0.0027,0.0786 -0.0041,0.0786 v 0.007 c 2.444963,0.27421 4.927136,0.37569 7.442438,0.37569 2.039308,0 4.056276,-0.11717 6.050279,-0.29869 a 66.723092,66.723092 0 0 0 8.875426,-1.41025 c 29.687647,-6.77817 51.839167,-33.34132 51.839167,-65.073383 0,-3.874446 -0.33393,-7.676026 -0.9679,-11.369849 -0.003,0.0015 -0.005,0.01121 -0.007,0.0124 -0.507,-2.943914 -1.20411,-5.912827 -2.08308,-8.595342 h -0.032 c 0.88911,2.682515 1.59523,5.663341 2.10788,8.643916 h -5.9e-4 c -0.51236,-2.980575 -1.21856,-5.961401 -2.10736,-8.643916 z m -24.802102,86.359067 -0.0031,0.078 h 0.0046 z" />
  </g>
</svg>
