<?xml version="1.0" encoding="UTF-8" standalone="no"?>
<!-- Created with Inkscape (http://www.inkscape.org/) -->

<svg
   width="133.52983mm"
   height="133.52931mm"
   viewBox="0 0 133.52983 133.52931"
   version="1.1"
   id="svg5"
   inkscape:version="1.1.1 (3bf5ae0d25, 2021-09-20)"
   sodipodi:docname="chrome.svg"
   xmlns:inkscape="http://www.inkscape.org/namespaces/inkscape"
   xmlns:sodipodi="http://sodipodi.sourceforge.net/DTD/sodipodi-0.dtd"
   xmlns="http://www.w3.org/2000/svg"
   xmlns:svg="http://www.w3.org/2000/svg">
  <sodipodi:namedview
     id="namedview7"
     pagecolor="#ffffff"
     bordercolor="#666666"
     borderopacity="1.0"
     inkscape:pageshadow="2"
     inkscape:pageopacity="0.0"
     inkscape:pagecheckerboard="0"
     inkscape:document-units="mm"
     showgrid="false"
     inkscape:zoom="0.72337262"
     inkscape:cx="289.61561"
     inkscape:cy="279.93871"
     inkscape:window-width="1920"
     inkscape:window-height="1001"
     inkscape:window-x="-9"
     inkscape:window-y="-9"
     inkscape:window-maximized="1"
     inkscape:current-layer="g856"
     fit-margin-top="0"
     fit-margin-left="0"
     fit-margin-right="0"
     fit-margin-bottom="0" />
  <defs
     id="defs2">
    <inkscape:path-effect
       effect="fillet_chamfer"
       id="path-effect1874"
       is_visible="true"
       lpeversion="1"
       satellites_param="F,0,0,1,0,0,0,1 @ F,0,0,1,0,0,0,1 @ F,0,0,1,0,0,0,1 @ F,0,0,1,0,0,0,1 @ F,0,0,1,0,0,0,1 @ F,0,0,1,0,8.1697436,0,1 @ F,0,0,1,0,0,0,1 @ F,0,0,1,0,0,0,1 @ F,0,0,1,0,0,0,1 @ F,0,0,1,0,0,0,1 @ F,0,0,1,0,0,0,1 @ F,0,0,1,0,0,0,1 @ F,0,0,1,0,0,0,1 @ F,0,0,1,0,0,0,1 | F,0,0,1,0,0,0,1 @ F,0,0,1,0,0,0,1 @ F,0,0,1,0,0,0,1 @ F,0,0,1,0,0,0,1 @ F,0,0,1,0,0,0,1 @ F,0,0,1,0,0,0,1 @ F,0,0,1,0,8.8167262,0,1 @ F,0,0,1,0,0,0,1 @ F,0,0,1,0,0,0,1 @ F,0,0,1,0,0,0,1 | F,0,0,1,0,0,0,1 @ F,0,0,1,0,0,0,1 @ F,0,0,1,0,0,0,1 @ F,0,0,1,0,0,0,1 | F,0,0,1,0,6.941858,0,1 @ F,0,0,1,0,0,0,1 @ F,0,0,1,0,0,0,1 @ F,0,0,1,0,0,0,1 @ F,0,0,1,0,0,0,1 @ F,0,0,1,0,0,0,1 @ F,0,0,1,0,0,0,1 @ F,0,0,1,0,0,0,1 @ F,0,0,1,0,0,0,1 @ F,0,0,1,0,0,0,1 @ F,0,0,1,0,0,0,1 @ F,0,0,1,0,0,0,1 @ F,0,0,1,0,0,0,1 @ F,0,0,1,0,0,0,1 @ F,0,0,1,0,0,0,1 @ F,0,0,1,0,0,0,1 @ F,0,0,1,0,0,0,1 | F,0,0,1,0,0,0,1 @ F,0,0,1,0,0,0,1 @ F,0,0,1,0,0,0,1"
       unit="px"
       method="auto"
       mode="F"
       radius="0"
       chamfer_steps="1"
       flexible="false"
       use_knot_distance="true"
       apply_no_radius="true"
       apply_with_radius="true"
       only_selected="false"
       hide_knots="false" />
  </defs>
  <g
     inkscape:label="Chrome Icon"
     inkscape:groupmode="layer"
     id="chrome"
     transform="translate(-32.917647,-10.165761)">
    <g
       id="g856"
       transform="matrix(0.29805723,0,0,0.29805723,3.9824487,-0.40671346)">
      <path
         id="path-main"
         style="fill:#ffea62;fill-opacity:1;stroke-width:1"
         d="m 321.07966,35.471291 c -26.37199,0 -51.6723,4.568698 -75.1713,12.935698 -34.615,12.327 -65.30421,32.917084 -89.6882,59.406081 l 0.14216,0.24274 0.0104,-0.0104 73.24751,126.18541 c 2.26515,3.90224 4.76303,3.45835 6.0357,-0.86874 10.71676,-36.43732 44.64958,-63.89075 85.42373,-63.89075 h 205.17153 c -6.921,-15 -15.59277,-30.32507 -25.77777,-43.93906 0.039,0.021 0.0772,0.0536 0.11616,0.0746 10.134,13.576 18.76761,28.86452 25.66161,43.86452 h 0.17338 c -6.884,-15 -15.51455,-30.38108 -25.66854,-43.99109 -0.11501,-0.06 -0.22856,-0.1676 -0.34156,-0.2566 C 459.55547,70.737647 394.43866,35.471291 321.07966,35.471291 Z m -180.1306,90.809959 c -10.36134,13.98145 -19.05442,29.1251 -25.90261,45.12324 -11.559,27.011 -17.967112,56.75184 -17.967112,87.99084 0,62.69501 25.785302,119.36114 67.317302,160.01014 29.342,28.719 66.54403,49.43296 108.08703,58.61896 l 0.0295,-0.052 73.27644,-126.96716 c 2.43398,-4.21738 0.71727,-6.20369 -3.98108,-4.93146 -6.65381,1.80172 -13.68841,2.89358 -20.72885,2.89358 -33.60099,0 -61.60077,-17.91015 -77.28478,-44.78515 L 141.08603,126.51877 Z m 180.1306,65.93548 c -36.95699,0 -67.1994,30.2336 -67.1994,67.1786 0,36.946 30.24241,67.1786 67.1994,67.1786 36.95701,0 67.19941,-30.2316 67.19941,-67.1786 0,-36.945 -30.2424,-67.1786 -67.19941,-67.1786 z m 63.26662,5.04192 c 16.15757,16.45647 26.33317,37.8302 26.33317,62.26324 0,16.79601 -4.48328,31.28448 -12.31327,44.72448 L 296.1237,481.92369 c 0,0 -0.009,0.26353 -0.0139,0.26353 v 0.0225 c 8.203,0.92 16.53084,1.26045 24.96983,1.26045 6.842,0 13.60905,-0.39312 20.29905,-1.00212 10.02092,-0.90616 19.96934,-2.4869 29.77759,-4.73147 99.604,-22.74 173.9237,-111.86095 173.9237,-218.32395 0,-12.999 -1.12037,-25.75353 -3.24737,-38.14653 -0.009,0.005 -0.0163,0.0376 -0.0243,0.0416 -1.701,-9.87701 -4.03985,-19.83789 -6.98885,-28.83789 h -0.10749 c 2.983,9 5.35207,19.00085 7.07207,29.00086 h -0.002 c -1.719,-10.00001 -4.08833,-20.00086 -7.07033,-29.00086 l -148.44746,6e-5 c -3.83388,0 -4.60348,2.05358 -1.91796,4.78878 z m -88.23645,284.95111 -0.0104,0.26179 h 0.0156 z"
         inkscape:path-effect="#path-effect1874"
         inkscape:original-d="m 321.07966,35.471291 c -26.37199,0 -51.6723,4.568698 -75.1713,12.935698 -34.615,12.327 -65.30421,32.917084 -89.6882,59.406081 l 0.14216,0.24274 0.0104,-0.0104 77.34893,133.25104 c 7.84101,-40.312 43.67301,-71.82512 87.35801,-71.82512 h 205.17153 c -6.921,-15 -15.59277,-30.32507 -25.77777,-43.93906 0.039,0.021 0.0772,0.0536 0.11616,0.0746 10.134,13.576 18.76761,28.86452 25.66161,43.86452 h 0.17338 c -6.884,-15 -15.51455,-30.38108 -25.66854,-43.99109 -0.11501,-0.06 -0.22856,-0.1676 -0.34156,-0.2566 C 459.55547,70.737647 394.43866,35.471291 321.07966,35.471291 Z m -180.1306,90.809959 a 223.516,223.516 0 0 0 -25.90261,45.12324 c -11.559,27.011 -17.967112,56.75184 -17.967112,87.99084 0,62.69501 25.785302,119.36114 67.317302,160.01014 29.342,28.719 66.54403,49.43296 108.08703,58.61896 l 0.0295,-0.052 77.68354,-134.6034 c -8.959,3.358 -19.03203,5.59836 -29.11703,5.59836 -33.60099,0 -61.60077,-17.91015 -77.28478,-44.78515 L 141.08603,126.51877 Z m 180.1306,65.93548 c -36.95699,0 -67.1994,30.2336 -67.1994,67.1786 0,36.946 30.24241,67.1786 67.1994,67.1786 36.95701,0 67.19941,-30.2316 67.19941,-67.1786 0,-36.945 -30.2424,-67.1786 -67.19941,-67.1786 z m 58.24272,0.25314 c 19.044,16.99999 31.35707,40.17503 31.35707,67.05202 0,16.79601 -4.48328,31.28448 -12.31327,44.72448 L 296.1237,481.92369 c 0,0 -0.009,0.26353 -0.0139,0.26353 v 0.0225 c 8.203,0.92 16.53084,1.26045 24.96983,1.26045 6.842,0 13.60905,-0.39312 20.29905,-1.00212 a 223.86,223.86 0 0 0 29.77759,-4.73147 c 99.604,-22.74 173.9237,-111.86095 173.9237,-218.32395 0,-12.999 -1.12037,-25.75353 -3.24737,-38.14653 -0.009,0.005 -0.0163,0.0376 -0.0243,0.0416 -1.701,-9.87701 -4.03985,-19.83789 -6.98885,-28.83789 h -0.10749 c 2.983,9 5.35207,19.00085 7.07207,29.00086 h -0.002 c -1.719,-10.00001 -4.08833,-20.00086 -7.07033,-29.00086 z m -83.21255,289.73989 -0.0104,0.26179 h 0.0156 z" />
    </g>
  </g>
</svg>
