<?xml version="1.0" encoding="UTF-8" standalone="no"?>
<!-- Created with Inkscape (http://www.inkscape.org/) -->

<svg
   xmlns:dc="http://purl.org/dc/elements/1.1/"
   xmlns:cc="http://creativecommons.org/ns#"
   xmlns:rdf="http://www.w3.org/1999/02/22-rdf-syntax-ns#"
   xmlns:svg="http://www.w3.org/2000/svg"
   xmlns="http://www.w3.org/2000/svg"
   xmlns:sodipodi="http://sodipodi.sourceforge.net/DTD/sodipodi-0.dtd"
   xmlns:inkscape="http://www.inkscape.org/namespaces/inkscape"
   width="77.673347mm"
   height="77.673347mm"
   viewBox="0 0 77.673347 77.673348"
   version="1.1"
   id="svg859"
   inkscape:version="0.92.5 (2060ec1f9f, 2020-04-08)"
   sodipodi:docname="discord.svg">
  <metadata
     id="metadata10">
    <rdf:RDF>
      <cc:Work
         rdf:about="">
        <dc:format>image/svg+xml</dc:format>
        <dc:type
           rdf:resource="http://purl.org/dc/dcmitype/StillImage" />
        <dc:title></dc:title>
      </cc:Work>
    </rdf:RDF>
  </metadata>
  <sodipodi:namedview
     id="namedview861"
     pagecolor="#ffffff"
     bordercolor="#666666"
     borderopacity="1.0"
     inkscape:pageshadow="2"
     inkscape:pageopacity="0.0"
     inkscape:pagecheckerboard="0"
     inkscape:document-units="mm"
     showgrid="false"
     fit-margin-top="0"
     fit-margin-left="0"
     fit-margin-right="0"
     fit-margin-bottom="0"
     inkscape:zoom="1.4467452"
     inkscape:cx="144.4622"
     inkscape:cy="50.803692"
     inkscape:window-width="2560"
     inkscape:window-height="1308"
     inkscape:window-x="1920"
     inkscape:window-y="27"
     inkscape:window-maximized="1"
     inkscape:current-layer="g1675" />
  <defs
     id="defs856">
    <clipPath
       id="clip0">
      <rect
         width="71"
         height="55"
         id="rect1662"
         x="0"
         y="0"
         style="fill:#ffffff" />
    </clipPath>
  </defs>
  <g
     inkscape:label="Layer 1"
     inkscape:groupmode="layer"
     id="layer1"
     transform="translate(-3.7747819,15.387103)">
    <g
       style="fill:none"
       id="g1675"
       transform="matrix(1.0939908,0,0,1.0939908,3.7747818,2.6316247)">
      <path
         d="m 60.104499,-3.5433937 c -4.5253,-2.0764 -9.378,-3.6062 -14.4518,-4.48238 -0.0924,-0.01691 -0.1847,0.025349 -0.2323,0.109869 -0.6241,1.110011 -1.3154,2.558111 -1.7995,3.696311 -5.4572,-0.817 -10.8864,-0.817 -16.2317,0 -0.4842,-1.1635 -1.2006,-2.5863 -1.8275,-3.696311 -0.0476,-0.0817 -0.1399,-0.123959 -0.2323,-0.109869 -5.071,0.87338 -9.9237,2.40318 -14.4518,4.48238 -0.0392,0.0169 -0.0728,0.0451 -0.0951,0.0817 C 1.5779494,10.289706 -0.94356156,23.703106 0.29340744,36.950206 c 0.005597,0.0648 0.041978,0.1268 0.092353,0.1662 6.07289896,4.4598 11.95553856,7.1673 17.72893856,8.9619 0.0924,0.0282 0.1903,-0.0056 0.2491,-0.0817 1.3657,-1.865 2.5831,-3.8315 3.6269,-5.8995 0.0616,-0.1211 0.0028,-0.2648 -0.1231,-0.3127 -1.931,-0.7325 -3.7697,-1.6256 -5.5384,-2.6398 -0.1399,-0.0817 -0.1511,-0.2818 -0.0224,-0.3776 0.3722,-0.2789 0.7445,-0.5691 1.0999,-0.8621 0.0643,-0.0535 0.1539,-0.0648 0.2295,-0.031 11.6196,5.3051 24.1992,5.3051 35.6817,0 0.0756,-0.0366 0.1652,-0.0253 0.2323,0.0282 0.3555,0.293 0.7277,0.586 1.1027,0.8649 0.1287,0.0958 0.1203,0.2959 -0.0196,0.3776 -1.7687,1.0339 -3.6074,1.9073 -5.5412,2.637 -0.1259,0.0479 -0.1819,0.1944 -0.1203,0.3155 1.0662,2.0651 2.2836,4.0316 3.6241,5.8967 0.056,0.0789 0.1567,0.1127 0.2491,0.0845 5.8014,-1.7946 11.684,-4.5021 17.7569,-8.9619 0.0532,-0.0394 0.0868,-0.0986 0.0924,-0.1634 1.4804,-15.3151 -2.4796,-28.6184997 -10.4975,-40.4118997 -0.0196,-0.0394 -0.0531,-0.0676 -0.0923,-0.0845 z m -36.3786,32.4274997 c -3.4983,0 -6.3808,-3.2117 -6.3808,-7.156 0,-3.9443 2.8266,-7.156 6.3808,-7.156 3.5821,0 6.4367,3.2399 6.3807,7.156 0,3.9443 -2.8266,7.156 -6.3807,7.156 z m 23.5919,0 c -3.4982,0 -6.3807,-3.2117 -6.3807,-7.156 0,-3.9443 2.8265,-7.156 6.3807,-7.156 3.5822,0 6.4367,3.2399 6.3808,7.156 0,3.9443 -2.7986,7.156 -6.3808,7.156 z"
         id="path1658"
         style="fill:#fe4a6b;fill-opacity:1"
         inkscape:connector-curvature="0" />
    </g>
  </g>
</svg>
