<?xml version="1.0" encoding="UTF-8" standalone="no"?>
<!-- Created with Inkscape (http://www.inkscape.org/) -->

<svg
   width="67.42572mm"
   height="67.375046mm"
   viewBox="0 0 67.425721 67.375046"
   version="1.1"
   id="svg5"
   inkscape:version="1.1.1 (3bf5ae0d25, 2021-09-20)"
   sodipodi:docname="distributor-logo-ubuntu.svg"
   xmlns:inkscape="http://www.inkscape.org/namespaces/inkscape"
   xmlns:sodipodi="http://sodipodi.sourceforge.net/DTD/sodipodi-0.dtd"
   xmlns="http://www.w3.org/2000/svg"
   xmlns:svg="http://www.w3.org/2000/svg">
  <sodipodi:namedview
     id="namedview7"
     pagecolor="#ffffff"
     bordercolor="#666666"
     borderopacity="1.0"
     inkscape:pageshadow="2"
     inkscape:pageopacity="0.0"
     inkscape:pagecheckerboard="0"
     inkscape:document-units="mm"
     showgrid="false"
     fit-margin-top="0"
     fit-margin-left="0"
     fit-margin-right="0"
     fit-margin-bottom="0"
     inkscape:zoom="2.0460067"
     inkscape:cx="140.51762"
     inkscape:cy="143.93892"
     inkscape:window-width="1920"
     inkscape:window-height="1001"
     inkscape:window-x="-9"
     inkscape:window-y="-9"
     inkscape:window-maximized="1"
     inkscape:current-layer="layer1" />
  <defs
     id="defs2">
    <inkscape:path-effect
       effect="fill_between_many"
       method="originald"
       linkedpaths="#path291,0,1"
       id="path-effect2069"
       is_visible="true"
       lpeversion="0"
       join="true"
       close="true"
       autoreverse="true"
       applied="false" />
  </defs>
  <g
     inkscape:label="Ubuntu Icon"
     inkscape:groupmode="layer"
     id="ubuntu"
     transform="translate(-15.467759,-2.0892756)">
    <g
       id="g25"
       transform="matrix(0.26458333,0,0,0.26458333,4.5507221,2.7939075)">
      <path
         style="fill:#fea200;fill-opacity:1;stroke:none;stroke-width:0;stroke-miterlimit:4;stroke-dasharray:none"
         d="M 155.69363,251.59125 C 127.54018,248.3761 102.68277,237.12199 82.310343,218.36722 48.871283,187.58335 34.347788,140.94169 44.390283,96.588347 55.970653,45.442858 98.025923,6.4162936 149.9479,-1.3673043 c 12.65215,-1.8966775 27.98935,-1.7012869 40.82675,0.52011856 25.43566,4.40143044 49.37136,16.87308274 68.04257,35.45345074 20.13009,20.032152 32.52742,45.392463 36.46637,74.596615 0.90799,6.73198 1.09939,21.6901 0.36042,28.16667 -3.54816,31.09716 -16.23336,57.26888 -38.11068,78.62882 -14.28853,13.95062 -29.84474,23.41744 -48.83484,29.71872 -7.57845,2.51467 -13.86667,4.01611 -21.97077,5.24598 -4.91252,0.74551 -7.16264,0.88257 -16.24335,0.98945 -7.53354,0.0887 -11.7534,-0.0144 -14.79074,-0.36127 z m 59.5693,-34.75909 c 6.47011,-1.17296 12.15968,-6.51202 13.59893,-12.76116 0.46008,-1.99768 0.46008,-6.29681 0,-8.29448 -1.06293,-4.61519 -4.63603,-9.05596 -9.00202,-11.18802 -6.69648,-3.27011 -14.19746,-2.15372 -19.45587,2.89567 -3.56819,3.42635 -5.38177,7.62719 -5.38177,12.46591 0,10.75405 9.64929,18.80218 20.24073,16.88208 z m -34.06486,-18.94344 c 2.18594,-0.39728 4.73198,-0.92345 5.65786,-1.16927 l 1.68343,-0.44694 0.75061,-2.58082 c 1.20746,-4.15159 3.12795,-7.42321 6.07964,-10.35689 4.13831,-4.11307 8.22656,-6.14448 13.98787,-6.95045 3.21805,-0.45018 7.02532,-0.0967 9.90636,0.91982 0.77363,0.27295 1.54073,0.41339 1.70466,0.31208 0.16392,-0.10132 1.79906,-1.92764 3.63364,-4.0585 10.00508,-11.62087 16.07665,-25.34966 17.83361,-40.32464 0.22303,-1.90093 0.3123,-3.54945 0.19837,-3.66337 -0.11392,-0.11393 -5.64555,-0.29559 -12.29252,-0.40369 l -12.08538,-0.19655 -0.23217,1.5216 c -1.01071,6.62381 -2.73342,12.1121 -5.39962,17.20232 -8.54799,16.31954 -25.63978,26.66566 -44.03182,26.65365 -5.57355,-0.004 -12.81725,-1.41709 -17.98044,-3.5085 -1.33057,-0.53896 -2.57474,-0.97757 -2.76482,-0.97469 -0.32827,0.005 -11.62523,19.96792 -11.86416,20.96523 -0.266,1.11026 11.29585,5.36208 18.10032,6.65631 6.17617,1.17471 8.60318,1.36231 16.05525,1.24098 5.27825,-0.0859 8.09834,-0.29955 11.05931,-0.83768 z m -47.2637,-21.63879 c 3.29331,-5.51238 6.09752,-10.19943 6.23158,-10.41569 0.14705,-0.23721 -0.54319,-0.98255 -1.73988,-1.8788 -1.091,-0.81708 -3.30556,-2.82824 -4.92126,-4.46926 -7.16805,-7.28036 -11.90447,-16.53319 -13.70954,-26.78227 -0.74025,-4.2031 -0.71548,-11.80407 0.0529,-16.24336 2.03288,-11.74451 8.70227,-23.09254 17.76899,-30.234139 2.6087,-2.054799 2.76668,-2.252225 2.33607,-2.919415 -0.25401,-0.39357 -2.9951,-4.992424 -6.09131,-10.219675 -3.09621,-5.22725 -5.75885,-9.645558 -5.91697,-9.818456 -0.37716,-0.412409 -2.41258,0.94216 -6.71774,4.470645 -10.93025,8.958375 -20.10079,22.861168 -23.676267,35.89391 l -0.68327,2.49054 1.90122,1.9629 c 2.493407,2.5743 4.167777,5.23976 5.453867,8.68211 0.89141,2.38592 1.0706,3.41953 1.20673,6.96055 0.18407,4.78804 -0.2698,7.14837 -2.12446,11.04801 -1.30105,2.73561 -3.897017,6.32638 -5.455467,7.54605 l -1.04406,0.8171 0.75876,2.73049 c 1.01313,3.64587 3.447957,9.5854 5.582097,13.617 5.11835,9.66906 12.5955,18.35475 21.45706,24.9252 1.52647,1.13181 2.90313,2.0131 3.05924,1.95844 0.15612,-0.0547 2.97838,-4.60951 6.27169,-10.12188 z M 86.263153,141.34687 c 8.35658,-2.17662 13.71765,-10.16489 12.65551,-18.85738 -0.50492,-4.13221 -2.21034,-7.4093 -5.41553,-10.40631 -3.18912,-2.982 -7.00302,-4.42455 -11.71602,-4.43142 -9.56247,-0.0139 -17.05737,7.55263 -17.05737,17.22047 0,7.41769 5.1642,14.29699 12.26892,16.34359 2.59556,0.74768 6.6755,0.80539 9.26449,0.13105 z M 242.67561,119.89884 c 0.0911,-0.0911 -0.0183,-1.73361 -0.24316,-3.65001 -1.85183,-15.7836 -8.72516,-30.670294 -19.48844,-42.209347 l -2.17436,-2.331074 -2.41922,0.722145 c -3.16278,0.944099 -8.71182,1.023459 -11.92332,0.170528 -5.18108,-1.376034 -10.35229,-4.860939 -13.26036,-8.936245 -1.99416,-2.794549 -3.56527,-6.103964 -4.08441,-8.603433 l -0.40613,-1.955362 -3.47987,-0.732001 c -6.16641,-1.297122 -7.1707,-1.412395 -14.19357,-1.629161 -12.46606,-0.38477 -20.5432,1.208845 -33.60992,6.63122 -0.80785,0.335238 -1.46882,0.790609 -1.46882,1.011933 0,0.30223 11.07925,20.53937 11.61823,21.221639 0.0559,0.07078 1.78499,-0.502224 3.84239,-1.273344 7.98929,-2.994398 17.17065,-3.913184 25.26148,-2.527937 7.08561,1.213144 13.7056,3.778807 19.20171,7.441874 12.34745,8.229386 20.07333,20.644305 22.15264,35.597645 l 0.23586,1.69615 12.13681,-0.23978 c 6.67524,-0.13189 12.21135,-0.31433 12.30246,-0.40544 z M 215.5856,66.344282 c 3.4211,-0.721457 6.26184,-2.22759 8.54806,-4.532087 3.41089,-3.438155 5.09167,-7.472587 5.09917,-12.239691 0.008,-4.920082 -1.54101,-8.76467 -4.88342,-12.122439 -5.24436,-5.26847 -13.17865,-6.560671 -19.8967,-3.240432 -10.20427,5.043227 -12.67123,18.744952 -4.86169,27.002387 2.84268,3.005713 5.83321,4.622386 9.77372,5.283654 2.58061,0.433058 3.56279,0.409156 6.22086,-0.151392 z"
         id="path-main" />
    </g>
  </g>
</svg>
