<?xml version="1.0" encoding="UTF-8" standalone="no"?>
<svg
   xmlns:dc="http://purl.org/dc/elements/1.1/"
   xmlns:cc="http://creativecommons.org/ns#"
   xmlns:rdf="http://www.w3.org/1999/02/22-rdf-syntax-ns#"
   xmlns:svg="http://www.w3.org/2000/svg"
   xmlns="http://www.w3.org/2000/svg"
   xmlns:sodipodi="http://sodipodi.sourceforge.net/DTD/sodipodi-0.dtd"
   xmlns:inkscape="http://www.inkscape.org/namespaces/inkscape"
   id="Assets"
   viewBox="0 0 512 512"
   version="1.1"
   sodipodi:docname="firefox.svg"
   inkscape:version="0.92.5 (2060ec1f9f, 2020-04-08)">
  <metadata
     id="metadata9">
    <rdf:RDF>
      <cc:Work
         rdf:about="">
        <dc:format>image/svg+xml</dc:format>
        <dc:type
           rdf:resource="http://purl.org/dc/dcmitype/StillImage" />
        <dc:title />
      </cc:Work>
    </rdf:RDF>
  </metadata>
  <defs
     id="defs7" />
  <sodipodi:namedview
     pagecolor="#ffffff"
     bordercolor="#666666"
     borderopacity="1"
     objecttolerance="10"
     gridtolerance="10"
     guidetolerance="10"
     inkscape:pageopacity="0"
     inkscape:pageshadow="2"
     inkscape:window-width="1920"
     inkscape:window-height="1008"
     id="namedview5"
     showgrid="false"
     inkscape:zoom="3.6713808"
     inkscape:cx="237.3475"
     inkscape:cy="420.79659"
     inkscape:window-x="0"
     inkscape:window-y="0"
     inkscape:window-maximized="1"
     inkscape:current-layer="Assets" />
  <path
     style="fill:#fea200;fill-opacity:1;stroke-width:0.47169811"
     d="m 235.48307,494.17335 c -8.72045,-0.58599 -15.5828,-1.55877 -26.41509,-3.74453 -39.55129,-7.98071 -74.9563,-25.06087 -106.62994,-51.44068 C 94.804365,432.63034 78.067215,415.88007 71.761757,408.28782 66.139648,401.51837 58.429521,390.85492 53.456741,382.97115 16.311284,324.08131 7.1588306,250.80449 28.782902,185.42623 37.77678,158.23412 51.641327,130.1505 71.783969,107.84329 79.527884,99.2672 95.193817,84.830816 106.248,76.866852 c 7.34207,-4.976405 18.03322,-0.552079 21.01015,7.788274 4.08043,7.798383 -24.49446,35.985254 -5.32231,45.633514 21.42179,5.79918 22.98083,-27.69729 39.65115,-35.557181 8.53913,-3.616168 15.0052,2.311354 17.9306,7.962181 5.9051,12.00372 -10.29899,27.81912 -7.54631,42.49458 0.62694,3.34245 2.66274,8.16081 2.66274,8.22579 0,0.065 1.99944,5.55396 7.54528,10.6467 12.18106,15.16518 44.30172,25.70281 58.42091,37.97912 11.13744,8.49368 6.08438,20.69767 0.81432,25.1955 -7.36143,6.28274 -10.61401,7.53917 -21.96919,8.48644 -33.63946,6.12988 -59.29853,-7.39193 -74.76187,33.87413 -13.95259,57.87079 71.73141,96.7104 108.72417,97.48472 13.6747,0.005 17.16409,-0.3114 26.81523,-2.42775 36.35247,-7.97157 64.27785,-35.33037 72.93359,-71.45382 4.82386,-20.13167 3.73194,-42.94711 -2.90905,-60.78396 -7.6766,-20.61834 -17.23708,-31.0935 -33.31936,-41.72759 -4.84004,-3.20039 -12.07387,-5.89576 -12.73132,-9.93918 -1.94102,-5.16884 3.07009,-9.95244 9.20148,-9.48662 13.2847,1.00926 31.17715,22.15322 42.37577,26.53342 4.27202,1.67095 5.49103,-4.31659 5.41333,-4.97591 -0.7109,-6.03273 -4.87342,-8.33675 -11.17823,-15.82864 -4.42401,-5.25699 -13.51278,-14.15858 -18.5354,-18.1537 -9.33271,-7.42346 -22.39721,-14.80286 -33.34306,-18.83362 -5.67081,-2.08825 -13.89674,-4.46637 -17.92319,-5.1816 -5.72945,-1.01775 -17.37082,-1.57098 -28.18758,-1.33957 -15.88561,0.33986 -23.18196,1.74394 -37.75008,7.26446 -3.7546,1.42279 -7.84494,3.22294 -9.08965,3.37036 -2.18029,0.25822 -2.33182,-0.31963 -4.14044,-2.22088 -2.04784,-2.15272 -2.62242,-3.70769 -1.38276,-5.50633 1.11747,-1.62133 2.13016,-1.88508 5.63751,-3.69215 8.15148,-4.19984 22.97492,-8.38684 36.08491,-10.19248 2.07547,-0.28585 4.85932,-0.82394 6.18635,-1.19575 2.39425,-1.75324 1.85155,-1.47001 3.16512,-3.39361 0.4138,-1.49467 2.21627,-9.94636 2.85968,-12.67042 2.39564,-10.14279 5.42842,-16.521322 10.71603,-28.398181 8.8342,-19.843052 19.48193,-35.185448 35.78346,-51.560615 4.7645,-3.223726 10.19967,-10.395915 28.94491,-9.382569 7.2879,2.42369 13.32622,7.481827 22.94698,21.18356 9.18184,13.076624 17.27374,23.100303 38.68638,47.921959 34.49941,39.991936 38.95151,52.889246 54.22965,82.466266 3.54641,5.22194 7.05861,-0.0127 7.61556,-2.56932 1.09831,-5.04169 -0.22589,-7.17674 -6.24615,-24.83813 -3.48733,-10.23063 -7.30868,-12.49351 -10.16553,-22.63891 0.52374,-9.51647 10.29767,-8.50708 13.71962,-4.87474 10.97218,11.09555 18.14739,32.81975 25.4614,48.16238 8.93083,18.73425 15.52536,43.79812 18.49211,70.28302 1.03084,9.2028 1.43023,34.91684 0.69825,44.9591 -2.36269,32.41443 -10.12471,59.52077 -25.68913,89.71071 -18.70738,36.28627 -45.7495,66.55177 -79.76318,89.27081 -30.59724,20.43707 -63.83928,32.92141 -102.18028,38.37462 -5.72001,0.81358 -9.77341,0.98981 -25.88576,1.12533 -10.50707,0.0884 -21.96934,-0.0316 -25.4717,-0.26722 z"
     id="path4517"
     inkscape:connector-curvature="0"
     sodipodi:nodetypes="cssssssccccccsccscccssssccssccscsscscsccccsccsscssccscssscccc" />
</svg>
