<?xml version="1.0" encoding="UTF-8" standalone="no"?>
<!-- Created with Inkscape (http://www.inkscape.org/) -->

<svg
   width="168.87407mm"
   height="168.87407mm"
   viewBox="0 0 168.87407 168.87406"
   version="1.1"
   id="svg5"
   inkscape:version="1.1.1 (3bf5ae0d25, 2021-09-20)"
   sodipodi:docname="github-desktop.svg"
   xmlns:inkscape="http://www.inkscape.org/namespaces/inkscape"
   xmlns:sodipodi="http://sodipodi.sourceforge.net/DTD/sodipodi-0.dtd"
   xmlns="http://www.w3.org/2000/svg"
   xmlns:svg="http://www.w3.org/2000/svg">
  <sodipodi:namedview
     id="namedview7"
     pagecolor="#ffffff"
     bordercolor="#666666"
     borderopacity="1.0"
     inkscape:pageshadow="2"
     inkscape:pageopacity="0.0"
     inkscape:pagecheckerboard="0"
     inkscape:document-units="mm"
     showgrid="false"
     fit-margin-top="0"
     fit-margin-left="0"
     fit-margin-right="0"
     fit-margin-bottom="0"
     inkscape:zoom="0.12787542"
     inkscape:cx="394.91561"
     inkscape:cy="-629.51895"
     inkscape:window-width="1920"
     inkscape:window-height="1001"
     inkscape:window-x="-9"
     inkscape:window-y="-9"
     inkscape:window-maximized="1"
     inkscape:current-layer="layer1">
    <inkscape:grid
       type="xygrid"
       id="grid844"
       originx="-14.233065"
       originy="-2.7447449" />
  </sodipodi:namedview>
  <defs
     id="defs2" />
  <g
     inkscape:label="Layer 1"
     inkscape:groupmode="layer"
     id="layer1"
     transform="translate(-14.931347,-3.590796)">
    <path
       clip-rule="evenodd"
       d="m 124.28266,115.48845 c 4.94374,7.16121 5.45578,14.41942 6.41155,23.73118 0.80972,10.15156 0.7573,19.52787 0.7679,29.55078 0.004,3.21902 0.0547,3.69478 -3.07176,3.69445 -13.11537,-0.002 -30.756903,0 -43.872458,-0.002 -2.92522,0 -2.929043,-0.79665 -2.925021,-3.7331 0.0092,-6.39228 -0.255265,-12.13233 0.520637,-19.90171 -2.181554,0.65189 -2.575713,0.74478 -5.250921,1.094 -7.745506,0.17827 -19.733806,-1.94513 -28.216278,-9.92218 -1.046468,-1.21272 -1.881934,-2.61601 -2.745723,-3.97554 -3.806438,-5.9929 -7.492878,-13.43651 -11.388008,-17.82996 -2.039087,-2.72731 -3.666401,-4.23343 -4.65607,-4.6535 -2.735447,-0.94139 -4.016655,-1.48248 -2.707893,-2.95274 1.225552,-0.95405 5.353013,-1.29351 7.832762,-0.91172 6.190993,0.95328 10.376533,4.78754 13.69158,9.87391 1.649982,2.53154 3.357282,5.11335 5.476197,7.23411 6.785958,6.79232 15.02799,8.98398 24.36342,6.8664 6.02155,-1.36624 4.85374,-0.73222 5.753228,-6.23272 0.60083,-3.67387 1.61395,-7.17294 3.613534,-10.34553 0.331508,-0.52642 0.606196,-1.08837 1.014628,-1.82897 -2.642317,-0.52139 -0.347496,0.11895 -2.781996,-0.44266 -12.505096,-0.80464 -21.436459,-2.81173 -29.907861,-7.5952 C 44.337078,100.56624 42.900196,90.054453 40.70521,74.171722 c -0.192102,-5.555058 -0.319491,-13.505923 2.217828,-24.672 2.513318,-8.721305 2.787958,-9.668165 5.833136,-16.1275 0.989865,-1.523156 0.882215,-1.685705 2.541667,-3.280834 -1.68501,-8.480855 -2.696171,-10.823174 -0.584333,-21.7243333 2.119059,-6.388015 0.871491,-4.5663723 5.703001,-4.445 6.409242,0.9948467 7.696249,1.0169973 12.951999,3.574 8.873839,6.6675033 7.746912,6.6261483 9.727001,10.1139373 7.531423,-3.705913 9.028224,-3.807679 16.882007,-4.901409 8.662774,-1.140825 21.147454,-0.81294 29.469594,0.991062 3.23192,0.700886 4.81289,0.619466 7.68581,1.621689 4.44387,-4.51945 5.52623,-5.217163 11.32928,-7.8252793 5.01162,-2.2524163 5.50515,-2.4881509 12.64491,-3.6386585 4.20159,-0.094114 4.79611,-1.0623247 5.87562,4.2396585 0.093,3.3563863 -0.11889,12.2967303 -2.67922,20.9360003 0,0 1.82953,1.569374 2.97219,3.092022 1.14266,1.522648 4.36877,7.608406 6.98161,18.303662 1.6701,11.223319 2.57997,17.085665 1.10473,25.330484 -2.27273,11.615449 -8.92334,27.494037 -20.89389,33.915827 -6.65287,2.72954 -13.65387,4.55074 -24.2023,5.23325 -0.44647,0.066 -0.8973,0.11095 -1.33724,0.20648 -0.17782,0.0392 -0.33235,0.18704 -0.64591,0.37307 z"
       fill-rule="evenodd"
       id="path833"
       style="fill:#beebf4;stroke-width:0.167596;fill-opacity:1"
       sodipodi:nodetypes="cccccccccccccccccccccccccccccccccsccczccccccc" />
  </g>
</svg>
