<?xml version="1.0" encoding="UTF-8" standalone="no"?>
<!-- Created with Inkscape (http://www.inkscape.org/) -->

<svg
   width="33.048363mm"
   height="32.613697mm"
   viewBox="0 0 33.048363 32.613697"
   version="1.1"
   id="svg5"
   inkscape:version="1.1.1 (3bf5ae0d25, 2021-09-20)"
   sodipodi:docname="inkscape.svg"
   xmlns:inkscape="http://www.inkscape.org/namespaces/inkscape"
   xmlns:sodipodi="http://sodipodi.sourceforge.net/DTD/sodipodi-0.dtd"
   xmlns="http://www.w3.org/2000/svg"
   xmlns:svg="http://www.w3.org/2000/svg">
  <sodipodi:namedview
     id="namedview7"
     pagecolor="#ffffff"
     bordercolor="#666666"
     borderopacity="1.0"
     inkscape:pageshadow="2"
     inkscape:pageopacity="0.0"
     inkscape:pagecheckerboard="false"
     inkscape:document-units="mm"
     showgrid="false"
     fit-margin-top="0"
     fit-margin-left="0"
     fit-margin-right="0"
     fit-margin-bottom="0"
     inkscape:zoom="5.7869808"
     inkscape:cx="68.170262"
     inkscape:cy="56.419748"
     inkscape:window-width="1920"
     inkscape:window-height="1001"
     inkscape:window-x="-9"
     inkscape:window-y="-9"
     inkscape:window-maximized="1"
     inkscape:current-layer="inkscape-logo" />
  <defs
     id="defs2" />
  <g
     inkscape:label="Layer 1"
     inkscape:groupmode="layer"
     id="layer1"
     transform="translate(-39.071877,-59.040441)">
    <g
       id="Inkscape Icon"
       transform="matrix(0.09081344,0,0,0.09081344,37.731533,57.632841)">
      <path
         id="path-main"
         style="fill:#a8d001;fill-opacity:1;stroke-width:0.343232"
         d="M 61.390625,0 C 57.528408,-0.00772272 53.703238,1.3956102 50.931641,4.2324219 L 4.8222656,51.416016 C -10.75703,70.709081 15.424754,68.46456 26.648438,74.021484 c 4.026109,4.115351 -15.430408,7.152702 -11.404297,11.271485 4.02611,4.11535 24.343978,7.929571 28.376953,12.044922 4.02611,4.115349 -8.240954,8.480349 -4.214844,12.595699 4.02611,4.11535 13.338413,0.21614 15.082031,9.7168 1.2425,6.78913 16.779752,2.91778 24.378907,-2.64258 4.026109,-4.11878 -7.701892,-3.73035 -3.675782,-7.8457 C 85.203481,98.923501 94.525718,105.44084 97.951172,95.181641 99.643305,90.112105 83.213119,87.36535 87.246094,83.25 98.83017,76.484899 138.86898,72.08187 119.87109,53.083984 L 72.076172,4.2324219 C 69.153552,1.4265011 65.252842,0.00772272 61.390625,0 Z m 0.414063,4.4902344 c 2.757438,0.014587 5.505644,1.0463069 7.484374,3.0507812 L 87.53125,26.068359 c 1.729889,1.767645 1.961519,6.818767 0.738281,6.177735 -0.834941,-0.437547 -8.507549,-7.599036 -9.058593,-7.244141 -0.518382,0.333859 -1.545966,10.693683 -1.78125,10.728516 -0.857253,0.126916 -6.005782,-4.086988 -7.56836,-3.996094 -1.332421,0.07751 -11.892701,7.770986 -12.11914,7.658203 C 57.542846,39.293292 55.120537,23.231332 53.730469,23.25 52.368326,23.26829 47.21875,34.515625 47.21875,34.515625 h -9.953125 c -4.057001,0 -4.533967,-5.149628 -0.847656,-8.835937 6.43903,-6.950446 13.827937,-14.033619 17.84375,-18.1386724 2.018203,-2.0628237 4.785529,-3.0653686 7.542969,-3.0507812 z M 39.898438,76.574219 c 1.232202,0.765407 19.86914,4.55153 24.423828,5.30664 1.578866,0.332935 0.459293,1.960252 -1.716797,3.058594 -4.908216,1.304281 -28.71359,-8.365234 -22.707031,-8.365234 z m 72.464842,12.970703 c -3.74981,0.129141 -7.4474,2.044797 -8.4668,5.636719 0,2.340841 17.24805,3.874957 17.24805,-0.552735 -1.22877,-3.555882 -5.03144,-5.213125 -8.78125,-5.083984 z M 32.933594,99.683594 c -5.322168,0.119445 -11.291699,3.986846 -6.730469,7.937496 4.08446,3.53186 10.391995,-0.87978 12.283203,-5.80859 -0.989366,-1.31458 -2.65604,-1.96057 -4.5,-2.101562 -0.345742,-0.02644 -0.697923,-0.03531 -1.052734,-0.02734 z m 68.800786,0.30664 c -5.265187,4.722876 0.58963,9.514226 5.77929,6.462886 1.15669,-1.17384 -0.0302,-5.28903 -5.77929,-6.462886 z"
         transform="matrix(2.9134821,0,0,2.9134821,14.759313,15.499908)"
         sodipodi:nodetypes="scccccscccccccssccsssssscsccsccccsccscccsscccc" />
    </g>
  </g>
  <style
     type="text/css"
     id="style26">
	.specularity {opacity:0.5;}
	.low-specularity {opacity:0.25;}
	.full-specularity {opacity:1;}
	.black {fill:#000000;}
	.white {fill:#ffffff;}
	.outline-big {stroke-width:16;stroke:none;opacity:0.1;fill:none;}
	.outline-small {stroke-width:8;stroke:none;opacity:0.2;fill:none;}
	.stroke-highlight {fill:none;stroke:none;opacity:0.2;}
       	.base-shadow 	{fill:black;opacity:75;}
	</style>
</svg>
