<?xml version="1.0" encoding="UTF-8" standalone="no"?>
<!-- Created with Inkscape (http://www.inkscape.org/) -->

<svg
   style="isolation:isolate"
   viewBox="0 0 44 43.976002"
   width="44pt"
   height="44pt"
   version="1.1"
   id="svg866"
   sodipodi:docname="mattermost.svg"
   inkscape:version="1.1.2 (08b2f3d93c, 2022-04-05)"
   xmlns:inkscape="http://www.inkscape.org/namespaces/inkscape"
   xmlns:sodipodi="http://sodipodi.sourceforge.net/DTD/sodipodi-0.dtd"
   xmlns="http://www.w3.org/2000/svg"
   xmlns:svg="http://www.w3.org/2000/svg">
  <defs
     id="defs870" />
  <sodipodi:namedview
     id="namedview868"
     pagecolor="#505050"
     bordercolor="#ffffff"
     borderopacity="1"
     inkscape:pageshadow="0"
     inkscape:pageopacity="0"
     inkscape:pagecheckerboard="1"
     inkscape:document-units="pt"
     showgrid="false"
     fit-margin-top="0"
     fit-margin-left="0"
     fit-margin-right="0"
     fit-margin-bottom="0"
     inkscape:zoom="13.640625"
     inkscape:cx="29.360825"
     inkscape:cy="29.32417"
     inkscape:window-width="2560"
     inkscape:window-height="1295"
     inkscape:window-x="0"
     inkscape:window-y="0"
     inkscape:window-maximized="1"
     inkscape:current-layer="svg866" />
  <path
     d="M 21.503,0 C 9.557,0.27 0.01,10.027 0,21.976 c 0,12.15 9.85,22 22,22 12.15,0 22,-9.85 22,-22 C 43.978,14.783 40.441,8.056 34.528,3.96 v 5.438 c 2.057,2.717 3.175,6.028 3.186,9.435 0,8.679 -7.035,15.714 -15.714,15.714 C 13.321,34.547 6.286,27.512 6.286,18.833 6.295,11.484 11.397,5.122 18.569,3.518 19.468,2.446 20.581,1.107 21.049,0.534 21.205,0.342 21.351,0.179 21.503,0 Z m 5.653,3.149 c -0.116,0.052 -0.672,0.667 -1.24,1.363 -0.568,0.696 -1.808,2.182 -2.756,3.309 -0.948,1.126 -2.748,3.282 -3.996,4.788 -2.452,2.958 -2.843,3.554 -3.247,4.959 -0.252,0.878 -0.275,2.295 -0.049,3.119 0.618,2.257 2.683,3.948 5.346,4.382 0.121,0.02 0.54,0.044 0.927,0.05 1.614,0.023 2.986,-0.522 4.15,-1.652 0.613,-0.595 0.783,-0.829 1.16,-1.589 0.243,-0.49 0.506,-1.144 0.589,-1.449 0.213,-0.784 0.313,-2.403 0.203,-6.108 V 3.53 C 28.185,3.238 27.418,3.033 27.156,3.149 Z"
     fill="url(#_lgradient_1)"
     id="path864"
     style="fill:#beebf4;fill-opacity:1" />
</svg>
