<?xml version="1.0" encoding="UTF-8" standalone="no"?>
<!-- Created with Inkscape (http://www.inkscape.org/) -->

<svg
   width="4.7443848in"
   height="4.7443848in"
   viewBox="0 0 120.50737 120.50737"
   version="1.1"
   id="svg12503"
   inkscape:version="1.1.1 (3bf5ae0d25, 2021-09-20)"
   sodipodi:docname="minecraft.svg"
   xmlns:inkscape="http://www.inkscape.org/namespaces/inkscape"
   xmlns:sodipodi="http://sodipodi.sourceforge.net/DTD/sodipodi-0.dtd"
   xmlns="http://www.w3.org/2000/svg"
   xmlns:svg="http://www.w3.org/2000/svg">
  <sodipodi:namedview
     id="namedview12505"
     pagecolor="#ffffff"
     bordercolor="#666666"
     borderopacity="1.0"
     inkscape:pageshadow="2"
     inkscape:pageopacity="0.0"
     inkscape:pagecheckerboard="0"
     inkscape:document-units="mm"
     showgrid="false"
     inkscape:zoom="1.0230034"
     inkscape:cx="209.67673"
     inkscape:cy="251.70983"
     inkscape:window-width="1920"
     inkscape:window-height="1001"
     inkscape:window-x="-9"
     inkscape:window-y="-9"
     inkscape:window-maximized="1"
     inkscape:current-layer="layer2"
     fit-margin-top="0"
     fit-margin-left="0"
     fit-margin-right="0"
     fit-margin-bottom="0"
     units="in" />
  <defs
     id="defs12500" />
  <g
     inkscape:label="Layer 1"
     inkscape:groupmode="layer"
     id="layer1"
     transform="translate(-6.8456383,-8.2015626)" />
  <g
     inkscape:groupmode="layer"
     id="layer2"
     inkscape:label="Face"
     style="display:inline"
     transform="translate(-1.8104372,-2.0690711)">
    <path
       id="path1224"
       style="fill:#339f4f;fill-opacity:1;fill-rule:evenodd;stroke:none;stroke-width:6.02536"
       d="m 13.861381,2.0690711 c -6.6580209,0 -12.0509438,5.3929128 -12.0509438,12.0509439 V 110.5255 c 0,6.65803 5.3929229,12.05094 12.0509438,12.05094 h 96.405479 c 6.65802,0 12.05095,-5.39291 12.05095,-12.05094 V 14.120015 c 0,-6.6580311 -5.39293,-12.0509439 -12.05095,-12.0509439 z M 31.893355,28.084537 h 12.050943 c 3.326,0 6.025473,2.699482 6.025473,6.025472 v 9.550321 l 6.025472,8.526094 H 68.04567 l 6.025472,-8.526094 v -9.550321 c 0,-3.32599 2.699481,-6.025472 6.025473,-6.025472 h 12.050427 c 3.326,0 6.025469,2.699482 6.025469,6.025472 v 12.050943 c 0,3.325992 -2.699469,6.025472 -6.025469,6.025472 H 80.096615 l -6.025473,4.778005 c 0,3.283857 2.632779,4.712599 5.904548,4.7718 3.326,0.03616 6.145879,2.391997 6.145879,5.717997 V 100.38917 H 74.071142 v -8.526097 c 0,-3.326701 -2.699472,-3.52485 -6.025472,-3.52485 H 55.995243 c -3.326,0 -6.025472,0.19885 -6.025472,3.52485 v 8.526097 H 37.918828 V 67.761701 c 0,-3.103049 2.54862,-5.553993 5.64565,-5.410522 3.500739,0.162671 6.405293,-1.934231 6.405293,-5.38675 L 43.944298,52.186424 H 31.893355 c -3.31394,0 -6.024955,-2.711521 -6.024955,-6.025472 V 34.110009 c 0,-3.32599 2.698966,-6.025472 6.024955,-6.025472 z" />
  </g>
  <g
     inkscape:groupmode="layer"
     id="g1585"
     inkscape:label="Face copy"
     style="display:inline"
     transform="translate(-1.8104372,-2.0690711)" />
</svg>
