<?xml version="1.0" encoding="UTF-8" standalone="no"?>
<svg
   version="1.1"
   id="svg2"
   xml:space="preserve"
   width="753.15198"
   height="756.39862"
   viewBox="0 0 753.15199 756.3986"
   sodipodi:docname="opera.svg"
   inkscape:version="1.1.2 (0a00cf5339, 2022-02-04)"
   xmlns:inkscape="http://www.inkscape.org/namespaces/inkscape"
   xmlns:sodipodi="http://sodipodi.sourceforge.net/DTD/sodipodi-0.dtd"
   xmlns="http://www.w3.org/2000/svg"
   xmlns:svg="http://www.w3.org/2000/svg"
   xmlns:rdf="http://www.w3.org/1999/02/22-rdf-syntax-ns#"
   xmlns:cc="http://creativecommons.org/ns#"
   xmlns:dc="http://purl.org/dc/elements/1.1/"><metadata
     id="metadata8"><rdf:RDF><cc:Work
         rdf:about=""><dc:format>image/svg+xml</dc:format><dc:type
           rdf:resource="http://purl.org/dc/dcmitype/StillImage" /></cc:Work></rdf:RDF></metadata><defs
     id="defs6" /><sodipodi:namedview
     pagecolor="#ffffff"
     bordercolor="#666666"
     borderopacity="1"
     objecttolerance="10"
     gridtolerance="10"
     guidetolerance="10"
     inkscape:pageopacity="0"
     inkscape:pageshadow="2"
     inkscape:window-width="1128"
     inkscape:window-height="679"
     id="namedview4"
     inkscape:pagecheckerboard="0"
     showgrid="false"
     inkscape:zoom="0.39605918"
     inkscape:cx="398.93028"
     inkscape:cy="512.54966"
     inkscape:window-x="0"
     inkscape:window-y="37"
     inkscape:window-maximized="1"
     inkscape:current-layer="g10" /><g
     id="g10"
     inkscape:groupmode="layer"
     inkscape:label="ink_ext_XXXXXX"
     transform="matrix(1.3333333,0,0,-1.3333333,-285.65733,1146.288)"><g
       id="g12"
       transform="scale(0.1)"
       style="fill:#fe4a6b;fill-opacity:1"><path
         d="m 6847.28,7876.78 c -514.38,464.45 -1179.76,720.38 -1873.45,720.38 h -9.44 c -1557.27,0 -2821.96,-1270.15 -2821.96,-2834.12 0,-1516.59 1179.75,-2763.04 2689.83,-2834.13 42.47,0 89.66,-4.74 132.13,-4.74 693.7,0 1363.79,255.93 1882.89,720.38 599.31,535.55 943.79,1308.06 943.79,2113.74 0,810.43 -344.48,1578.21 -943.79,2118.49 m -169.89,-4023.7 c -302.01,-199.05 -646.51,-303.31 -995.71,-303.31 -575.72,0 -1118.4,279.61 -1495.92,767.77 l -4.72,4.74 c -287.86,341.23 -457.74,843.6 -471.9,1374.4 v 123.23 c 14.16,530.81 184.04,1033.18 476.62,1379.15 377.52,488.15 920.2,767.77 1495.92,767.77 349.2,0 693.7,-104.27 995.71,-303.32 537.97,-488.15 844.7,-1180.09 844.7,-1905.22 0,-720.38 -306.73,-1417.06 -844.7,-1905.21"
         style="fill:#fe4a6b;fill-opacity:1;fill-rule:nonzero;stroke:none"
         id="path14"
         sodipodi:nodetypes="cssscscsccscccccscsc" /><path
         d="m 5497.64,7568.72 c 509.65,-327.01 863.57,-1004.74 863.57,-1786.73 0,-781.99 -353.92,-1459.71 -863.57,-1786.73 651.22,52.13 1170.31,834.12 1170.31,1786.73 0,952.61 -519.09,1734.6 -1170.31,1786.73"
         style="fill:#fe4a6b;fill-opacity:1;fill-rule:nonzero;stroke:none"
         id="path16" /></g></g></svg>
