<?xml version="1.0" encoding="UTF-8" standalone="no"?>
<!-- Created with Inkscape (http://www.inkscape.org/) -->

<svg
   width="84.665283mm"
   height="84.665283mm"
   viewBox="0 0 84.665281 84.665285"
   version="1.1"
   id="svg5"
   inkscape:version="1.1.1 (3bf5ae0d25, 2021-09-20)"
   sodipodi:docname="spotify-client.svg"
   xmlns:inkscape="http://www.inkscape.org/namespaces/inkscape"
   xmlns:sodipodi="http://sodipodi.sourceforge.net/DTD/sodipodi-0.dtd"
   xmlns="http://www.w3.org/2000/svg"
   xmlns:svg="http://www.w3.org/2000/svg">
  <sodipodi:namedview
     id="namedview7"
     pagecolor="#ffffff"
     bordercolor="#666666"
     borderopacity="1.0"
     inkscape:pageshadow="2"
     inkscape:pageopacity="0.0"
     inkscape:pagecheckerboard="0"
     inkscape:document-units="mm"
     showgrid="false"
     fit-margin-top="0"
     fit-margin-left="0"
     fit-margin-right="0"
     fit-margin-bottom="0"
     inkscape:zoom="0.51150167"
     inkscape:cx="554.25039"
     inkscape:cy="264.90627"
     inkscape:window-width="1920"
     inkscape:window-height="1001"
     inkscape:window-x="-9"
     inkscape:window-y="-9"
     inkscape:window-maximized="1"
     inkscape:current-layer="g109"
     height="84.66528mm" />
  <defs
     id="defs2" />
  <g
     inkscape:label="Layer 1"
     inkscape:groupmode="layer"
     id="layer1"
     transform="translate(-48.809916,-66.529239)" />
  <g
     inkscape:label="Layer 1 copy"
     inkscape:groupmode="layer"
     id="g109"
     transform="translate(-48.809916,-66.529239)">
    <path
       fill="#1ed760"
       d="m 117.16792,135.13161 c -1.06514,1.74683 -3.35166,2.30071 -5.09849,1.22846 -13.961906,-8.52825 -31.538196,-10.45971 -52.237486,-5.73047 -1.99466,0.45446 -3.98293,-0.79531 -4.43739,-2.79068 -0.45659,-1.99536 0.78821,-3.98363 2.78784,-4.43809 22.65205,-5.17731 42.082406,-2.9469 57.757056,6.63229 1.74684,1.07224 2.30071,3.35165 1.22847,5.09849 z m 7.27848,-16.19374 c -1.34208,2.18355 -4.19666,2.87234 -6.37666,1.53026 -15.98426,-9.82703 -40.349776,-12.67238 -59.256076,-6.93339 -2.45196,0.74063 -5.04168,-0.64121 -5.78586,-3.08891 -0.7385,-2.45196 0.64406,-5.03671 3.09176,-5.78231 21.59614,-6.552761 48.444156,-3.37864 66.800126,7.90123 2.18,1.34209 2.86879,4.19668 1.52671,6.37383 z m 0.62488,-16.86052 C 105.9058,90.693814 74.285234,89.647132 55.986774,95.200789 c -2.93838,0.89117 -6.04576,-0.76761 -6.93621,-3.705987 -0.89047,-2.939797 0.7669,-6.045046 3.7074,-6.938347 21.00535,-6.376659 55.924306,-5.144643 77.989826,7.954494 2.64866,1.5686 3.51497,4.98203 1.94566,7.621441 -1.56221,2.64298 -4.98487,3.51427 -7.61932,1.94496 z"
       id="path107"
       style="fill:#00ba9e;fill-opacity:1;stroke-width:0.710095"
       sodipodi:nodetypes="ccccccccccccccccccccccc" />
  </g>
  <g
     inkscape:groupmode="layer"
     id="layer2"
     inkscape:label="Masking layer"
     transform="translate(-13.542173,-14.435845)" />
</svg>
