<?xml version="1.0" encoding="UTF-8" standalone="no"?>
<!-- Created with Inkscape (http://www.inkscape.org/) -->

<svg
   width="118.93182mm"
   height="118.92898mm"
   viewBox="0 0 118.93182 118.92898"
   version="1.1"
   id="svg5"
   inkscape:version="1.1.1 (3bf5ae0d25, 2021-09-20)"
   sodipodi:docname="spotify-client.svg"
   xmlns:inkscape="http://www.inkscape.org/namespaces/inkscape"
   xmlns:sodipodi="http://sodipodi.sourceforge.net/DTD/sodipodi-0.dtd"
   xmlns="http://www.w3.org/2000/svg"
   xmlns:svg="http://www.w3.org/2000/svg">
  <sodipodi:namedview
     id="namedview7"
     pagecolor="#ffffff"
     bordercolor="#666666"
     borderopacity="1.0"
     inkscape:pageshadow="2"
     inkscape:pageopacity="0.0"
     inkscape:pagecheckerboard="0"
     inkscape:document-units="mm"
     showgrid="false"
     fit-margin-top="0"
     fit-margin-left="0"
     fit-margin-right="0"
     fit-margin-bottom="0"
     inkscape:zoom="1.4467452"
     inkscape:cx="256.09208"
     inkscape:cy="221.53175"
     inkscape:window-width="1920"
     inkscape:window-height="1001"
     inkscape:window-x="-9"
     inkscape:window-y="-9"
     inkscape:window-maximized="1"
     inkscape:current-layer="layer1" />
  <defs
     id="defs2" />
  <g
     inkscape:label="Spotify Icon"
     inkscape:groupmode="layer"
     id="spotify"
     transform="translate(-35.267743,-52.093394)">
    <path
       fill="#1ed760"
       d="m 94.733296,52.093394 c -32.841223,0 -59.465553,26.623622 -59.465553,59.464846 0,32.84264 26.62433,59.46413 59.465553,59.46413 32.844774,0 59.466264,-26.62149 59.466264,-59.46413 0,-32.839093 -26.62149,-59.462004 -59.466974,-59.462004 z m 27.270524,85.765376 c -1.06514,1.74683 -3.35166,2.30071 -5.09849,1.22846 -13.96191,-8.52825 -31.538201,-10.45971 -52.237493,-5.73047 -1.994658,0.45446 -3.982925,-0.79531 -4.437388,-2.79068 -0.456591,-1.99536 0.788208,-3.98363 2.787836,-4.43809 22.652057,-5.17731 42.082415,-2.9469 57.757065,6.63229 1.74684,1.07224 2.30071,3.35165 1.22847,5.09849 z m 7.27848,-16.19374 c -1.34208,2.18355 -4.19666,2.87234 -6.37666,1.53026 -15.98426,-9.82702 -40.349779,-12.67237 -59.256079,-6.93338 -2.45196,0.74063 -5.041681,-0.64121 -5.785861,-3.08891 -0.7385,-2.45196 0.644057,-5.03671 3.091758,-5.78231 21.596143,-6.55277 48.444162,-3.37864 66.800132,7.90123 2.18,1.34209 2.86879,4.19667 1.52671,6.37382 z m 0.62488,-16.86051 C 110.7417,93.420972 79.121126,92.37429 60.82267,97.927948 c -2.938377,0.89117 -6.045757,-0.767614 -6.936215,-3.705988 -0.890462,-2.939797 0.766903,-6.045046 3.707408,-6.938347 21.005345,-6.376659 55.924307,-5.144643 77.989827,7.954492 2.64866,1.568602 3.51497,4.982035 1.94566,7.621455 -1.56221,2.64298 -4.98487,3.51427 -7.61932,1.94496 z"
       id="path-main"
       style="stroke-width:0.710095;fill:#00ba9e;fill-opacity:1" />
  </g>
</svg>
