<?xml version="1.0" encoding="UTF-8" standalone="no"?>
<!-- Created with Inkscape (http://www.inkscape.org/) -->

<svg
   xmlns:dc="http://purl.org/dc/elements/1.1/"
   xmlns:cc="http://creativecommons.org/ns#"
   xmlns:rdf="http://www.w3.org/1999/02/22-rdf-syntax-ns#"
   xmlns:svg="http://www.w3.org/2000/svg"
   xmlns="http://www.w3.org/2000/svg"
   xmlns:sodipodi="http://sodipodi.sourceforge.net/DTD/sodipodi-0.dtd"
   xmlns:inkscape="http://www.inkscape.org/namespaces/inkscape"
   width="121.7078mm"
   height="121.7078mm"
   viewBox="0 0 121.7078 121.7078"
   version="1.1"
   id="svg2060"
   inkscape:version="0.92.5 (2060ec1f9f, 2020-04-08)"
   sodipodi:docname="steam.svg">
  <metadata
     id="metadata12">
    <rdf:RDF>
      <cc:Work
         rdf:about="">
        <dc:format>image/svg+xml</dc:format>
        <dc:type
           rdf:resource="http://purl.org/dc/dcmitype/StillImage" />
        <dc:title></dc:title>
      </cc:Work>
    </rdf:RDF>
  </metadata>
  <sodipodi:namedview
     id="namedview2062"
     pagecolor="#ffffff"
     bordercolor="#666666"
     borderopacity="1.0"
     inkscape:pageshadow="2"
     inkscape:pageopacity="0.0"
     inkscape:pagecheckerboard="0"
     inkscape:document-units="mm"
     showgrid="false"
     fit-margin-top="0"
     fit-margin-left="0"
     fit-margin-right="0"
     fit-margin-bottom="0"
     inkscape:zoom="0.72337262"
     inkscape:cx="73.267908"
     inkscape:cy="267.497"
     inkscape:window-width="2560"
     inkscape:window-height="1308"
     inkscape:window-x="1920"
     inkscape:window-y="27"
     inkscape:window-maximized="1"
     inkscape:current-layer="comp_x5F_320-steam" />
  <defs
     id="defs2057">
    <inkscape:path-effect
       effect="fillet_chamfer"
       id="path-effect12450"
       is_visible="true"
       lpeversion="1"
       satellites_param="F,0,0,1,0,0,0,1 @ F,0,0,1,0,0,0,1 @ F,0,0,1,0,0,0,1 @ F,0,0,1,0,0,0,1 | F,0,0,1,0,0,0,1 @ F,0,0,1,0,0,0,1 @ F,0,0,1,0,0,0,1 @ F,0,0,1,0,0,0,1 @ F,0,0,1,0,0,0,1 @ F,0,0,1,0,0,0,1 @ F,0,0,1,0,0,0,1 @ F,0,0,1,0,0,0,1 @ F,0,0,1,0,0,0,1 @ F,0,0,1,0,0,0,1 @ F,0,0,1,0,0,0,1 | F,0,0,1,0,0,0,1 @ F,0,0,1,0,0,0,1 @ F,0,0,1,0,4.0487472,0,1 @ F,0,0,1,0,0,0,1 @ F,0,0,1,0,0,0,1 @ F,0,0,1,0,0,0,1 @ F,0,1,1,0,4.0487472,0,1 @ F,0,0,1,0,0,0,1 | F,0,0,1,0,0,0,1 @ F,0,0,1,0,0,0,1 @ F,0,0,1,0,0,0,1 @ F,0,0,1,0,0,0,1"
       unit="px"
       method="auto"
       mode="F"
       radius="0"
       chamfer_steps="1"
       flexible="false"
       use_knot_distance="true"
       apply_no_radius="true"
       apply_with_radius="true"
       only_selected="false"
       hide_knots="false" />
  </defs>
  <g
     inkscape:label="Steam Icon"
     inkscape:groupmode="layer"
     id="steam"
     transform="translate(-18.343749,11.536398)">
    <g
       id="g2149"
       transform="matrix(0.26458333,0,0,0.26458333,-0.43283968,-4.8221346)">
      <g
         id="comp_x5F_320-steam">
        <g
           id="g2135"
           transform="translate(1.9550227,-84.613717)">
          <path
             d="m 475.10461,208.58247 c 0,34.705 -28.236,62.634 -62.634,62.634 -34.706,0 -62.635,-28.03 -62.635,-62.634 0,-34.603 28.031,-62.634 62.635,-62.634 34.397,0 62.634,27.929 62.634,62.634 z m 53.905,0.205 c 0,64.688 -52.365,116.849 -116.743,116.849 l -112.229,81.937 c -4.106,44.152 -41.584,78.856 -86.763,78.856 -41.584,0 -76.701,-29.57 -85.223,-68.795 l -59.039998,-23.717 v -110.174 l 99.803998,40.351 c 15.505,-9.444 33.062,-13.655 53.393,-11.806 l 72.901,-104.425 c 0.513,-63.969 52.879,-115.820997 117.053,-115.820997 64.482,0 116.847,52.364997 116.847,116.744997 z m -251.561,190.264 c 0,-35.631 -28.544,-64.175 -64.175,-64.175 -3.29533,0 -6.58964,0.26037 -9.88439,0.78257 -2.20814,0.34998 -2.29577,1.4361 -0.22234,2.27329 l 22.94173,9.26314 c 26.183,10.475 39.019,40.046 28.442,66.23 -10.474,26.183 -40.25,39.017 -66.435,28.234 -9.21491,-3.61398 -18.51035,-7.46568 -27.74527,-11.06724 -2.08272,-0.81225 -2.93378,0.14897 -1.7605,2.05205 11.28464,18.30397 31.475,30.57919 54.66377,30.57919 35.632,10e-4 64.175,-28.543 64.175,-64.172 z m 213.057,-190.264 c 0,-43.124 -35.22,-78.241 -78.239,-78.241 -43.435,0 -78.55,35.117 -78.55,78.241 0,43.33 35.218,78.241 78.55,78.241 43.019,0.103 78.239,-34.809 78.239,-78.241 z"
             id="path-main"
             style="fill:#00c0f7;fill-opacity:1"
             inkscape:original-d="m 475.10461,208.58247 c 0,34.705 -28.236,62.634 -62.634,62.634 -34.706,0 -62.635,-28.03 -62.635,-62.634 0,-34.603 28.031,-62.634 62.635,-62.634 34.397,0 62.634,27.929 62.634,62.634 z m 53.905,0.205 c 0,64.688 -52.365,116.849 -116.743,116.849 l -112.229,81.937 c -4.106,44.152 -41.584,78.856 -86.763,78.856 -41.584,0 -76.701,-29.57 -85.223,-68.795 l -59.039998,-23.717 v -110.174 l 99.803998,40.351 c 15.505,-9.444 33.062,-13.655 53.393,-11.806 l 72.901,-104.425 c 0.513,-63.969 52.879,-115.820997 117.053,-115.820997 64.482,0 116.847,52.364997 116.847,116.744997 z m -251.561,190.264 c 0,-35.631 -28.544,-64.175 -64.175,-64.175 -4.621,0 -9.24,0.512 -13.861,1.54 l 26.696,10.779 c 26.183,10.475 39.019,40.046 28.442,66.23 -10.474,26.183 -40.25,39.017 -66.435,28.234 -10.472,-4.107 -21.048,-8.521 -31.521,-12.526 10.781,20.228 32.037,34.09 56.679,34.09 35.632,10e-4 64.175,-28.543 64.175,-64.172 z m 213.057,-190.264 c 0,-43.124 -35.22,-78.241 -78.239,-78.241 -43.435,0 -78.55,35.117 -78.55,78.241 0,43.33 35.218,78.241 78.55,78.241 43.019,0.103 78.239,-34.809 78.239,-78.241 z"
             inkscape:connector-curvature="0" />
        </g>
      </g>
      <g
         id="Layer_1" />
    </g>
  </g>
</svg>
