<?xml version="1.0" encoding="UTF-8" standalone="no"?>
<!-- Created with Inkscape (http://www.inkscape.org/) -->

<svg
   width="367.36679mm"
   height="367.36679mm"
   viewBox="0 0 367.36679 367.36679"
   version="1.1"
   id="svg5"
   inkscape:version="1.1.1 (3bf5ae0d25, 2021-09-20)"
   sodipodi:docname="sublime-text.svg"
   xmlns:inkscape="http://www.inkscape.org/namespaces/inkscape"
   xmlns:sodipodi="http://sodipodi.sourceforge.net/DTD/sodipodi-0.dtd"
   xmlns="http://www.w3.org/2000/svg"
   xmlns:svg="http://www.w3.org/2000/svg">
  <sodipodi:namedview
     id="namedview7"
     pagecolor="#ffffff"
     bordercolor="#666666"
     borderopacity="1.0"
     inkscape:pageshadow="2"
     inkscape:pageopacity="0.0"
     inkscape:pagecheckerboard="0"
     inkscape:document-units="mm"
     showgrid="false"
     fit-margin-top="0"
     fit-margin-left="0"
     fit-margin-right="0"
     fit-margin-bottom="0"
     width="367.36679mm"
     inkscape:zoom="0.36168631"
     inkscape:cx="1107.3131"
     inkscape:cy="706.41325"
     inkscape:window-width="1920"
     inkscape:window-height="1001"
     inkscape:window-x="-9"
     inkscape:window-y="-9"
     inkscape:window-maximized="1"
     inkscape:current-layer="layer1" />
  <defs
     id="defs2">
    <inkscape:path-effect
       effect="fillet_chamfer"
       id="path-effect762"
       is_visible="true"
       lpeversion="1"
       satellites_param="F,0,0,1,0,0,0,1 @ F,0,0,1,0,0,0,1 @ F,0,0,1,0,0,0,1 @ F,0,0,1,0,0,0,1 @ F,0,0,1,0,0,0,1 @ F,0,0,1,0,0,0,1 @ F,0,0,1,0,0,0,1 @ F,0,0,1,0,3.2135162,0,1 @ F,0,0,1,0,0,0,1 @ F,0,0,1,0,5.4012585,0,1 @ F,0,0,1,0,0,0,1 @ F,0,0,1,0,0,0,1 | F,0,0,1,0,0,0,1 @ F,0,0,1,0,0,0,1 @ F,0,0,1,0,0,0,1 @ F,0,0,1,0,0,0,1 @ F,0,0,1,0,0,0,1 @ F,0,0,1,0,0,0,1 @ F,0,0,1,0,0,0,1 @ F,0,0,1,0,0,0,1 @ F,0,0,1,0,0,0,1 @ F,0,0,1,0,0,0,1 @ F,0,0,1,0,0,0,1 @ F,0,0,1,0,0,0,1 @ F,0,0,1,0,0,0,1 @ F,0,0,1,0,0,0,1 @ F,0,0,1,0,0,0,1 @ F,0,0,1,0,0,0,1 @ F,0,0,1,0,0,0,1 @ F,0,0,1,0,0,0,1 @ F,0,0,1,0,0,0,1 @ F,0,0,1,0,0,0,1 @ F,0,0,1,0,0,0,1 @ F,0,0,1,0,0,0,1 @ F,0,0,1,0,0,0,1 @ F,0,0,1,0,0,0,1 @ F,0,0,1,0,0,0,1 @ F,0,0,1,0,0,0,1"
       unit="px"
       method="auto"
       mode="F"
       radius="0"
       chamfer_steps="1"
       flexible="false"
       use_knot_distance="true"
       apply_no_radius="true"
       apply_with_radius="true"
       only_selected="false"
       hide_knots="false" />
  </defs>
  <g
     inkscape:label="Layer 1"
     inkscape:groupmode="layer"
     id="layer1"
     transform="translate(-37.319543,20.564752)">
    <path
       style="fill:#fea200;stroke-width:0.264583;fill-opacity:1"
       d="m 82.070595,346.42855 c -1.00955,-0.43955 -1.87481,-1.50979 -2.23835,-2.7686 -0.18847,-0.65262 -0.25146,-15.49326 -0.19832,-46.72928 l 0.0779,-45.77292 0.7457,-1.51855 c 0.84528,-1.72135 2.67997,-3.68509 4.1378,-4.42881 0.54104,-0.27601 20.797175,-6.76682 45.013645,-14.424 19.12409,-6.04698 35.99374,-11.38149 42.71733,-13.508 1.69216,-0.53519 4.47643,-0.69559 6.21306,-0.32967 26.12103,5.50387 53.02008,16.0165 78.80549,24.17182 34.2287,10.82576 63.62834,20.20008 75.08402,23.92923 2.83575,0.92312 2.83808,2.51805 0.003,3.44146 -35.77373,11.65025 -247.064666,78.33044 -248.354045,78.3108 -0.65484,-0.0101 -1.55791,-0.17803 -2.00682,-0.37348 z M 354.08469,255.62852 c -1.16416,-0.38008 -61.94557,-19.60653 -135.06978,-42.72547 -73.12422,-23.11894 -133.461215,-42.2747 -134.082215,-42.56836 -1.7674,-0.83576 -3.39865,-2.52135 -4.42448,-4.57184 l -0.92872,-1.85641 V 117.89868 71.890913 l 0.76917,-1.696363 c 0.89932,-1.983399 2.61906,-3.81399 4.4332,-4.718942 0.70396,-0.351155 62.001795,-19.852964 136.217415,-43.337347 l 134.9375,-42.698884 1.87267,-0.004 c 1.63613,-0.004 1.99244,0.087 2.82067,0.71869 1.94333,1.48227 1.81038,-2.27599 1.72937,48.886322 l -0.0727,45.905214 -0.57661,1.2481 c -0.70106,1.51756 -2.72706,3.73519 -4.17679,4.57188 -0.58709,0.33884 -26.7254,8.7248 -58.08514,18.63547 -65.53983,20.712317 -57.83098,18.228427 -57.52461,18.534797 0.13367,0.13368 25.90085,8.35646 57.26038,18.27285 64.62581,20.43571 60.10177,18.76356 62.35859,23.04862 l 0.74417,1.41293 0.0698,46.04022 0.0698,46.04023 -0.59894,1.17239 c -1.25756,2.46166 -3.74692,3.00998 -7.74269,1.70543 z"
       id="path544"
       inkscape:path-effect="#path-effect762"
       inkscape:original-d="m 82.070595,346.42855 c -1.00955,-0.43955 -1.87481,-1.50979 -2.23835,-2.7686 -0.18847,-0.65262 -0.25146,-15.49326 -0.19832,-46.72928 l 0.0779,-45.77292 0.7457,-1.51855 c 0.84528,-1.72135 2.67997,-3.68509 4.1378,-4.42881 0.54104,-0.27601 20.797175,-6.76682 45.013645,-14.424 24.21646,-7.65717 44.818,-14.17193 45.78119,-14.47724 27.10375,5.29363 55.13175,16.32792 81.95469,24.81139 44.11188,13.95159 80.20343,25.49255 80.20343,25.64662 0,0.46625 -252.062165,80.05633 -253.470825,80.03487 -0.65484,-0.0101 -1.55791,-0.17803 -2.00682,-0.37348 z M 354.08469,255.62852 c -1.16416,-0.38008 -61.94557,-19.60653 -135.06978,-42.72547 -73.12422,-23.11894 -133.461215,-42.2747 -134.082215,-42.56836 -1.7674,-0.83576 -3.39865,-2.52135 -4.42448,-4.57184 l -0.92872,-1.85641 V 117.89868 71.890913 l 0.76917,-1.696363 c 0.89932,-1.983399 2.61906,-3.81399 4.4332,-4.718942 0.70396,-0.351155 62.001795,-19.852964 136.217415,-43.337347 l 134.9375,-42.698884 1.87267,-0.004 c 1.63613,-0.004 1.99244,0.087 2.82067,0.71869 1.94333,1.48227 1.81038,-2.27599 1.72937,48.886322 l -0.0727,45.905214 -0.57661,1.2481 c -0.70106,1.51756 -2.72706,3.73519 -4.17679,4.57188 -0.58709,0.33884 -26.7254,8.7248 -58.08514,18.63547 -65.53983,20.712317 -57.83098,18.228427 -57.52461,18.534797 0.13367,0.13368 25.90085,8.35646 57.26038,18.27285 64.62581,20.43571 60.10177,18.76356 62.35859,23.04862 l 0.74417,1.41293 0.0698,46.04022 0.0698,46.04023 -0.59894,1.17239 c -1.25756,2.46166 -3.74692,3.00998 -7.74269,1.70543 z"
       sodipodi:nodetypes="ssscsssccscsssssscccssscccscsscssscccsss" />
  </g>
</svg>
