<?xml version="1.0" encoding="UTF-8" standalone="no"?>
<!-- Generator: Gravit.io -->

<svg
   xmlns:dc="http://purl.org/dc/elements/1.1/"
   xmlns:cc="http://creativecommons.org/ns#"
   xmlns:rdf="http://www.w3.org/1999/02/22-rdf-syntax-ns#"
   xmlns:svg="http://www.w3.org/2000/svg"
   xmlns="http://www.w3.org/2000/svg"
   xmlns:sodipodi="http://sodipodi.sourceforge.net/DTD/sodipodi-0.dtd"
   xmlns:inkscape="http://www.inkscape.org/namespaces/inkscape"
   style="isolation:isolate"
   viewBox="0 0 46.5 46.5"
   width="46.5pt"
   height="46.5pt"
   version="1.1"
   id="svg16"
   sodipodi:docname="terminal.svg"
   inkscape:version="0.92.5 (2060ec1f9f, 2020-04-08)">
  <metadata
     id="metadata22">
    <rdf:RDF>
      <cc:Work
         rdf:about="">
        <dc:format>image/svg+xml</dc:format>
        <dc:type
           rdf:resource="http://purl.org/dc/dcmitype/StillImage" />
        <dc:title></dc:title>
      </cc:Work>
    </rdf:RDF>
  </metadata>
  <defs
     id="defs20" />
  <sodipodi:namedview
     pagecolor="#ffffff"
     bordercolor="#666666"
     borderopacity="1"
     objecttolerance="10"
     gridtolerance="10"
     guidetolerance="10"
     inkscape:pageopacity="0"
     inkscape:pageshadow="2"
     inkscape:window-width="1758"
     inkscape:window-height="1046"
     id="namedview18"
     showgrid="false"
     inkscape:zoom="11.989474"
     inkscape:cx="34.823122"
     inkscape:cy="32.215398"
     inkscape:window-x="2291"
     inkscape:window-y="79"
     inkscape:window-maximized="0"
     inkscape:current-layer="svg16"
     inkscape:snap-midpoints="true" />
  <linearGradient
     id="_lgradient_3"
     x1="0"
     y1="0.5"
     x2="1"
     y2="0.5"
     gradientTransform="matrix(46.5,0,0,41,1,3.5)"
     gradientUnits="userSpaceOnUse">
    <stop
       offset="0%"
       stop-opacity="1"
       style="stop-color:rgb(0,255,255)"
       id="stop2" />
    <stop
       offset="98.26086956521739%"
       stop-opacity="1"
       style="stop-color:rgb(165,83,168)"
       id="stop4" />
  </linearGradient>
  <path
     style="fill:#0ad3f3;fill-opacity:1;stroke-width:1"
     d="m 9.2988282,2.7495122 c -2.4699998,0 -4.8352891,0.9511133 -6.5712892,2.6411133 C 0.98153903,7.0706255 0,9.3595117 0,11.749513 v 4.340331 14.359863 4.300781 c 0,2.390001 0.98153903,4.678887 2.727539,6.358887 1.7360001,1.69 4.1012894,2.641113 6.5712892,2.641113 H 37.199707 c 2.47,0 4.835289,-0.951113 6.571289,-2.641113 0.4365,-0.42 0.825492,-0.876953 1.163086,-1.365234 C 45.946863,38.279297 46.5,36.542988 46.5,34.750488 V 30.449707 16.089844 11.749513 c 0,-2.3900013 -0.983004,-4.6788875 -2.729004,-6.3588875 -1.736,-1.69 -4.101289,-2.6411133 -6.571289,-2.6411133 z m 0,4.0004883 H 37.199707 c 1.374,0 2.686715,0.5304492 3.657715,1.4604492 0.961,0.94 1.508789,2.2090623 1.508789,3.5390633 v 4.340331 18.660644 c 0,1.330001 -0.547789,2.599063 -1.508789,3.539063 -0.971,0.93 -2.283715,1.460449 -3.657715,1.460449 H 9.2988282 c -1.374,0 -2.6867153,-0.530449 -3.6577149,-1.460449 -0.961,-0.94 -1.5087891,-2.209062 -1.5087891,-3.539063 0,-18.660644 0,0 0,-18.660644 v -4.340331 c 0,-0.166251 0.00804,-0.33127 0.024902,-0.495118 0.1180293,-1.146933 0.6430117,-2.2214453 1.4838867,-3.0439453 0.9709998,-0.93 2.283715,-1.4604492 3.6577153,-1.4604492 z"
     id="path7"
     inkscape:connector-curvature="0"
     sodipodi:nodetypes="scsccscsscssccscsssscscccsscccsscs" />
  <linearGradient
     id="_lgradient_4"
     x1="0"
     y1="0.5"
     x2="1"
     y2="0.5"
     gradientTransform="matrix(14.06,0,0,18.12,10.19,13.69)"
     gradientUnits="userSpaceOnUse">
    <stop
       offset="0%"
       stop-opacity="1"
       style="stop-color:rgb(0,255,255)"
       id="stop9" />
    <stop
       offset="98.26086956521739%"
       stop-opacity="1"
       style="stop-color:rgb(165,83,168)"
       id="stop11" />
  </linearGradient>
  <path
     d="m 8.1943036,14.780253 v 0 c -0.871999,-0.684 -1.026999,-1.946 -0.344999,-2.814999 v 0 c 0.681999,-0.869 1.938001,-1.024 2.8050014,-0.345 v 0 l 7.656,5.982999 c 1.305,1.019 1.305,2.675 0,3.694 l -7.656,5.983 v 0 c -0.8670004,0.679 -2.1230024,0.524 -2.8050014,-0.345 v 0 c -0.682,-0.869 -0.527,-2.131 0.344999,-2.815 v 0 l 5.9800024,-4.67 z"
     id="path14"
     style="fill:#0ad3f3;fill-opacity:1"
     inkscape:connector-curvature="0" />
  <path
     style="isolation:isolate;fill:#0ad3f3;fill-opacity:1;stroke-width:0.99999994"
     d="m 17.690011,31.231043 c -1.141005,0 -2.066895,0.895512 -2.066895,1.999512 0,1.104 0.92589,2.000977 2.066895,2.000977 6.747127,-0.02432 13.769482,0.0074 19.627439,-0.04834 1.140998,0 2.066895,-0.895511 2.066895,-1.999511 0,-1.104 -0.925897,-1.999512 -2.066895,-1.999512 -6.593751,-0.0364 -13.482097,-0.03655 -19.627439,0.04687 z"
     id="path7-6"
     inkscape:connector-curvature="0"
     sodipodi:nodetypes="csccscc" />
</svg>
