<?xml version="1.0" encoding="UTF-8" standalone="no"?>
<!-- Generator: Gravit.io -->

<svg
   style="isolation:isolate"
   viewBox="0 0 46.5 46.5"
   width="46.5pt"
   height="46.5pt"
   version="1.1"
   id="svg16"
   sodipodi:docname="terminal.svg"
   inkscape:version="1.1.1 (eb90963e84, 2021-10-02)"
   xmlns:inkscape="http://www.inkscape.org/namespaces/inkscape"
   xmlns:sodipodi="http://sodipodi.sourceforge.net/DTD/sodipodi-0.dtd"
   xmlns="http://www.w3.org/2000/svg"
   xmlns:svg="http://www.w3.org/2000/svg"
   xmlns:rdf="http://www.w3.org/1999/02/22-rdf-syntax-ns#"
   xmlns:cc="http://creativecommons.org/ns#"
   xmlns:dc="http://purl.org/dc/elements/1.1/">
  <metadata
     id="metadata22">
    <rdf:RDF>
      <cc:Work
         rdf:about="">
        <dc:format>image/svg+xml</dc:format>
        <dc:type
           rdf:resource="http://purl.org/dc/dcmitype/StillImage" />
        <dc:title />
      </cc:Work>
    </rdf:RDF>
  </metadata>
  <defs
     id="defs20">
    <inkscape:path-effect
       effect="offset"
       id="path-effect1938"
       is_visible="true"
       lpeversion="1"
       linejoin_type="miter"
       unit="mm"
       offset="0.6"
       miter_limit="4"
       attempt_force_join="false"
       update_on_knot_move="true" />
    <inkscape:path-effect
       effect="offset"
       id="path-effect447"
       is_visible="true"
       lpeversion="1"
       linejoin_type="miter"
       unit="mm"
       offset="0.6"
       miter_limit="4"
       attempt_force_join="false"
       update_on_knot_move="true" />
  </defs>
  <sodipodi:namedview
     pagecolor="#ffffff"
     bordercolor="#666666"
     borderopacity="1"
     objecttolerance="10"
     gridtolerance="10"
     guidetolerance="10"
     inkscape:pageopacity="0"
     inkscape:pageshadow="2"
     inkscape:window-width="1920"
     inkscape:window-height="1043"
     id="namedview18"
     showgrid="false"
     inkscape:zoom="11.989474"
     inkscape:cx="42.036874"
     inkscape:cy="37.616329"
     inkscape:window-x="4480"
     inkscape:window-y="457"
     inkscape:window-maximized="1"
     inkscape:current-layer="svg16"
     inkscape:snap-midpoints="true"
     inkscape:pagecheckerboard="1"
     inkscape:document-units="pt" />
  <linearGradient
     id="_lgradient_3"
     x1="0"
     y1="0.5"
     x2="1"
     y2="0.5"
     gradientTransform="matrix(46.5,0,0,41,1,3.5)"
     gradientUnits="userSpaceOnUse">
    <stop
       offset="0%"
       stop-opacity="1"
       style="stop-color:rgb(0,255,255)"
       id="stop2" />
    <stop
       offset="98.26086956521739%"
       stop-opacity="1"
       style="stop-color:rgb(165,83,168)"
       id="stop4" />
  </linearGradient>
  <path
     id="path7"
     style="fill:#0ad3f3;fill-opacity:1;stroke-width:1.33333"
     d="M 12.398438 3.6660156 C 9.1051039 3.6660156 5.9513855 4.9341667 3.6367188 7.1875 C 1.3087188 9.4275 1.1842379e-15 12.479347 0 15.666016 L 0 21.453125 L 0 40.599609 L 0 46.333984 C 0 49.520652 1.3087188 52.5725 3.6367188 54.8125 C 5.9513855 57.065833 9.1051039 58.333984 12.398438 58.333984 L 49.599609 58.333984 C 52.892943 58.333984 56.046661 57.065833 58.361328 54.8125 C 58.943328 54.2525 59.461984 53.643228 59.912109 52.992188 C 61.262484 51.039062 62 48.723984 62 46.333984 L 62 40.599609 L 62 21.453125 L 62 15.666016 C 62 12.479347 60.689328 9.4275 58.361328 7.1875 C 56.046661 4.9341667 52.892943 3.6660156 49.599609 3.6660156 L 12.398438 3.6660156 z M 11.005859 10.523438 C 12.114042 10.493162 13.233037 10.834626 14.169922 11.568359 L 24.375 19.544922 C 27.288131 21.819618 27.288724 25.765856 24.375 28.041016 L 14.166016 36.017578 C 12.014123 37.702858 8.9353789 37.323816 7.2480469 35.173828 C 5.5547338 33.016217 5.9355618 29.927688 8.0917969 28.236328 L 13.78125 23.791016 L 8.09375 19.351562 C 5.9335911 17.657131 5.5547309 14.56972 7.2480469 12.412109 C 8.0852238 11.345381 9.2764691 10.715039 10.53125 10.560547 C 10.688546 10.54118 10.847548 10.527757 11.005859 10.523438 z M 11.0625 12.789062 C 10.295211 12.809898 9.5427491 13.160749 9.03125 13.8125 C 8.1219171 14.971164 8.3275694 16.654406 9.4902344 17.566406 L 17.462891 23.792969 L 9.4902344 30.019531 C 8.3275694 30.931531 8.1219171 32.614771 9.03125 33.773438 C 9.940582 34.932106 11.615484 35.137757 12.771484 34.232422 L 22.978516 26.255859 C 24.718516 24.897193 24.718516 22.688745 22.978516 21.330078 L 12.771484 13.353516 C 12.265734 12.957433 11.65928 12.772863 11.0625 12.789062 z M 37.910156 40.115234 C 42.331814 40.107421 46.826856 40.120278 51.220703 40.144531 C 53.953807 40.144497 56.232422 42.296516 56.232422 45.078125 C 56.232411 47.859734 53.952653 50.013672 51.207031 50.013672 C 43.387539 50.087859 34.027603 50.045752 25.044922 50.078125 C 22.288455 50.07814 20.013672 47.919465 20.013672 45.140625 C 20.013672 42.361785 22.291487 40.207031 25.037109 40.207031 C 29.138927 40.151498 33.488499 40.123101 37.910156 40.115234 z M 37.898438 42.384766 C 33.47914 42.392552 29.135957 42.42095 25.039062 42.476562 C 23.517724 42.476562 22.283203 43.670578 22.283203 45.142578 C 22.283203 46.614578 23.517724 47.810547 25.039062 47.810547 C 34.035232 47.77812 43.398375 47.820414 51.208984 47.746094 C 52.730315 47.746094 53.964842 46.552078 53.964844 45.080078 C 53.964844 43.608078 52.730315 42.414062 51.208984 42.414062 C 46.813151 42.389837 42.317735 42.377032 37.898438 42.384766 z "
     transform="scale(0.75)" />
  <linearGradient
     id="_lgradient_4"
     x1="0"
     y1="0.5"
     x2="1"
     y2="0.5"
     gradientTransform="matrix(14.06,0,0,18.12,10.19,13.69)"
     gradientUnits="userSpaceOnUse">
    <stop
       offset="0%"
       stop-opacity="1"
       style="stop-color:rgb(0,255,255)"
       id="stop9" />
    <stop
       offset="98.26086956521739%"
       stop-opacity="1"
       style="stop-color:rgb(165,83,168)"
       id="stop11" />
  </linearGradient>
</svg>
