<?xml version="1.0" encoding="UTF-8" standalone="no"?>
<!-- Created with Inkscape (http://www.inkscape.org/) -->

<svg
   width="146.44081mm"
   height="109.77051mm"
   viewBox="0 0 146.44081 109.77051"
   version="1.1"
   id="svg1642"
   inkscape:version="1.1.1 (3bf5ae0d25, 2021-09-20)"
   sodipodi:docname="terminal.svg"
   xmlns:inkscape="http://www.inkscape.org/namespaces/inkscape"
   xmlns:sodipodi="http://sodipodi.sourceforge.net/DTD/sodipodi-0.dtd"
   xmlns="http://www.w3.org/2000/svg"
   xmlns:svg="http://www.w3.org/2000/svg">
  <sodipodi:namedview
     id="namedview1644"
     pagecolor="#ffffff"
     bordercolor="#666666"
     borderopacity="1.0"
     inkscape:pageshadow="2"
     inkscape:pageopacity="0.0"
     inkscape:pagecheckerboard="0"
     inkscape:document-units="mm"
     showgrid="false"
     fit-margin-top="0"
     fit-margin-left="0"
     fit-margin-right="0"
     fit-margin-bottom="0"
     inkscape:zoom="0.72337262"
     inkscape:cx="556.4214"
     inkscape:cy="261.96734"
     inkscape:window-width="1920"
     inkscape:window-height="1001"
     inkscape:window-x="-9"
     inkscape:window-y="-9"
     inkscape:window-maximized="1"
     inkscape:current-layer="layer1" />
  <defs
     id="defs1639" />
  <g
     inkscape:label="Terminal Icon"
     inkscape:groupmode="layer"
     id="terminal"
     transform="translate(-30.29079,-14.356219)">
    <path
       style="fill:#beebf4;stroke-width:0"
       d="m 34.826057,123.92728 c -1.93126,-0.52216 -3.52456,-1.93697 -4.19287,-3.72319 -0.36617,-0.97865 -0.36795,-1.26303 -0.32151,-51.312852 l 0.0467,-50.32874 0.44762,-0.909637 c 0.57093,-1.160219 1.6888,-2.278092 2.84902,-2.84902 l 0.90964,-0.447622 h 68.946433 68.94642 l 0.90964,0.447622 c 1.16022,0.570928 2.27809,1.688801 2.84902,2.84902 l 0.44762,0.909637 0.0467,50.32874 c 0.0466,50.256322 0.0462,50.330182 -0.32614,51.325242 -0.52428,1.40127 -1.59737,2.54573 -3.06392,3.26772 l -1.22097,0.60108 -68.21875,0.034 c -53.669963,0.0267 -68.397033,-0.0142 -69.054653,-0.192 z M 153.98649,108.63176 c 0.48637,-0.23545 0.90056,-0.6237 1.16245,-1.08967 0.40005,-0.71179 0.40595,-0.82 0.3537,-6.47921 -0.051,-5.521773 -0.0688,-5.776263 -0.43801,-6.271333 -0.21169,-0.2838 -0.66432,-0.68059 -1.00585,-0.88176 -0.61161,-0.36025 -0.99571,-0.36651 -25.49116,-0.41532 -17.2609,-0.0344 -25.16088,0.0108 -25.82028,0.14769 -1.2238,0.25406 -2.16973,1.22334 -2.34437,2.40225 -0.0645,0.43532 -0.0911,3.05465 -0.0591,5.820743 0.0667,5.76622 0.11374,5.96255 1.60989,6.7209 l 0.81182,0.41149 h 25.23263 c 24.85924,0 25.24382,-0.005 25.98824,-0.36578 z m -94.915673,-0.35122 c 1.03762,-0.4868 28.49974,-28.006631 28.88899,-28.949699 0.3495,-0.846735 0.35858,-1.804611 0.0244,-2.572091 -0.33331,-0.765479 -28.18956,-28.579095 -28.87959,-28.835389 -0.72949,-0.270949 -2.40838,-0.236998 -3.10295,0.06275 -0.32367,0.139682 -2.08299,1.765043 -3.90959,3.611914 -3.71971,3.76097 -3.92285,4.094351 -3.51757,5.772656 0.20033,0.82954 0.74657,1.413428 10.06168,10.755013 l 9.84987,9.877851 -9.612,9.599059 c -5.28659,5.279483 -9.76101,9.887093 -9.94315,10.239143 -0.48507,0.93756 -0.60556,1.70769 -0.39101,2.499323 0.1515,0.55901 0.90436,1.41319 3.71452,4.21441 2.03362,2.02714 3.79528,3.62934 4.1646,3.78764 0.86597,0.37115 1.77292,0.34975 2.65179,-0.0626 z"
       id="path-main" />
  </g>
</svg>
