<?xml version="1.0" encoding="UTF-8" standalone="no"?>
<!-- Created with Inkscape (http://www.inkscape.org/) -->

<svg
   xmlns:dc="http://purl.org/dc/elements/1.1/"
   xmlns:cc="http://creativecommons.org/ns#"
   xmlns:rdf="http://www.w3.org/1999/02/22-rdf-syntax-ns#"
   xmlns:svg="http://www.w3.org/2000/svg"
   xmlns="http://www.w3.org/2000/svg"
   xmlns:sodipodi="http://sodipodi.sourceforge.net/DTD/sodipodi-0.dtd"
   xmlns:inkscape="http://www.inkscape.org/namespaces/inkscape"
   width="146.44081mm"
   height="146.44081mm"
   viewBox="0 0 146.44081 146.44081"
   version="1.1"
   id="svg1642"
   inkscape:version="0.92.5 (2060ec1f9f, 2020-04-08)"
   sodipodi:docname="terminal.svg">
  <metadata
     id="metadata7">
    <rdf:RDF>
      <cc:Work
         rdf:about="">
        <dc:format>image/svg+xml</dc:format>
        <dc:type
           rdf:resource="http://purl.org/dc/dcmitype/StillImage" />
        <dc:title></dc:title>
      </cc:Work>
    </rdf:RDF>
  </metadata>
  <sodipodi:namedview
     id="namedview1644"
     pagecolor="#ffffff"
     bordercolor="#666666"
     borderopacity="1.0"
     inkscape:pageshadow="2"
     inkscape:pageopacity="0.0"
     inkscape:pagecheckerboard="0"
     inkscape:document-units="mm"
     showgrid="false"
     fit-margin-top="0"
     fit-margin-left="0"
     fit-margin-right="0"
     fit-margin-bottom="0"
     inkscape:zoom="0.72337262"
     inkscape:cx="321.41112"
     inkscape:cy="261.96734"
     inkscape:window-width="1920"
     inkscape:window-height="1008"
     inkscape:window-x="0"
     inkscape:window-y="0"
     inkscape:window-maximized="1"
     inkscape:current-layer="terminal" />
  <defs
     id="defs1639" />
  <g
     inkscape:label="Terminal Icon"
     inkscape:groupmode="layer"
     id="terminal"
     transform="translate(-30.29079,22.314083)">
    <path
       style="fill:#beebf4;stroke-width:0"
       d="m 34.82606,105.59213 c -1.93126,-0.52216 -3.52456,-1.93697 -4.19287,-3.72319 -0.36617,-0.97865 -0.36795,-1.26303 -0.32151,-51.312849 l 0.0467,-50.32874005 0.44762,-0.90963 C 31.37693,-1.842499 32.4948,-2.960379 33.65502,-3.531299 l 0.90964,-0.44763 h 68.94643 68.94642 l 0.90964,0.44763 c 1.16022,0.57092 2.27809,1.6888 2.84902,2.84901995 l 0.44762,0.90963 0.0467,50.32874005 c 0.0466,50.256319 0.0462,50.330179 -0.32614,51.325239 -0.52428,1.40127 -1.59737,2.54573 -3.06392,3.26772 l -1.22097,0.60108 -68.21875,0.034 c -53.66996,0.0267 -68.39703,-0.0142 -69.05465,-0.192 z M 153.98649,90.296611 c 0.48637,-0.23545 0.90056,-0.6237 1.16245,-1.08967 0.40005,-0.71179 0.40595,-0.82 0.3537,-6.47921 -0.051,-5.52177 -0.0688,-5.77626 -0.43801,-6.27133 -0.21169,-0.2838 -0.66432,-0.68059 -1.00585,-0.88176 -0.61161,-0.36025 -0.99571,-0.36651 -25.49116,-0.41532 -17.2609,-0.0344 -25.16088,0.0108 -25.82028,0.14769 -1.2238,0.25406 -2.16973,1.22334 -2.34437,2.40225 -0.0645,0.43532 -0.0911,3.05465 -0.0591,5.82074 0.0667,5.76622 0.11374,5.96255 1.60989,6.7209 l 0.81182,0.41149 h 25.23263 c 24.85924,0 25.24382,-0.005 25.98824,-0.36578 z m -94.91567,-0.35122 c 1.03762,-0.4868 28.49974,-28.00663 28.88899,-28.94969 0.3495,-0.84674 0.35858,-1.80462 0.0244,-2.5721 -0.33331,-0.76547 -28.18956,-28.57909 -28.87959,-28.83538 -0.72949,-0.27095 -2.40838,-0.237 -3.10295,0.0627 -0.32367,0.13968 -2.08299,1.76504 -3.90959,3.61191 -3.71971,3.76097 -3.92285,4.09435 -3.51757,5.77266 0.20033,0.82954 0.74657,1.41342 10.06168,10.75501 l 9.84987,9.87785 -9.612,9.59906 c -5.28659,5.27948 -9.76101,9.88709 -9.94315,10.23914 -0.48507,0.93756 -0.60556,1.70769 -0.39101,2.49932 0.1515,0.55901 0.90436,1.41319 3.71452,4.21441 2.03362,2.02714 3.79528,3.62934 4.1646,3.78764 0.86597,0.37115 1.77292,0.34975 2.65179,-0.0626 z"
       id="path-main"
       inkscape:connector-curvature="0" />
  </g>
</svg>
