<?xml version="1.0" encoding="UTF-8" standalone="no"?>
<svg
   width="512px"
   height="512px"
   viewBox="0 0 512 512"
   version="1.1"
   id="svg29"
   sodipodi:docname="tor.svg"
   inkscape:version="1.1.2 (0a00cf5339, 2022-02-04)"
   xmlns:inkscape="http://www.inkscape.org/namespaces/inkscape"
   xmlns:sodipodi="http://sodipodi.sourceforge.net/DTD/sodipodi-0.dtd"
   xmlns="http://www.w3.org/2000/svg"
   xmlns:svg="http://www.w3.org/2000/svg">
  <sodipodi:namedview
     id="namedview31"
     pagecolor="#ffffff"
     bordercolor="#666666"
     borderopacity="1.0"
     inkscape:pageshadow="2"
     inkscape:pageopacity="0.0"
     inkscape:pagecheckerboard="0"
     showgrid="false"
     inkscape:zoom="0.88671875"
     inkscape:cx="179.31278"
     inkscape:cy="254.87225"
     inkscape:window-width="1128"
     inkscape:window-height="679"
     inkscape:window-x="0"
     inkscape:window-y="37"
     inkscape:window-maximized="1"
     inkscape:current-layer="layer1" />
  <defs
     id="defs15">
    <linearGradient
       x1="50%"
       y1="100%"
       x2="50%"
       y2="0%"
       id="linearGradient-1">
      <stop
         stop-color="#420C5D"
         offset="0%"
         id="stop2" />
      <stop
         stop-color="#951AD1"
         offset="100%"
         id="stop4" />
    </linearGradient>
    <path
       d="M25,29 C152.577777,29 256,131.974508 256,259 C256,386.025492 152.577777,489 25,489 L25,29 Z"
       id="path-2" />
    <filter
       x="-0.13852814"
       y="-0.052173913"
       width="1.2424242"
       height="1.1043478"
       filterUnits="objectBoundingBox"
       id="filter-3">
      <feOffset
         dx="-8"
         dy="0"
         in="SourceAlpha"
         result="shadowOffsetOuter1"
         id="feOffset8" />
      <feGaussianBlur
         stdDeviation="10"
         in="shadowOffsetOuter1"
         result="shadowBlurOuter1"
         id="feGaussianBlur10" />
      <feColorMatrix
         values="0 0 0 0 0.250980392   0 0 0 0 0.250980392   0 0 0 0 0.250980392  0 0 0 0.2 0"
         type="matrix"
         in="shadowBlurOuter1"
         id="feColorMatrix12" />
    </filter>
  </defs>
  <g
     inkscape:groupmode="layer"
     id="layer1"
     inkscape:label="tor">
    <path
       d="m 257.74081,466.0633 v -31.0331 c 98.30105,-0.28386 177.89566,-80.04169 177.89566,-178.41371 0,-98.36491 -79.59461,-178.122742 -177.89566,-178.406602 v -31.0331 c 115.43916,0.29095 208.92166,93.936682 208.92166,209.439702 0,115.51012 -93.4825,209.16295 -208.92166,209.44681 z m 0,-108.6194 c 55.44514,-0.29095 100.32356,-45.3042 100.32356,-100.82741 0,-55.5161 -44.87842,-100.52935 -100.32356,-100.82031 v -31.026 c 72.59034,0.28386 131.35666,59.1921 131.35666,131.84631 0,72.66131 -58.76632,131.56955 -131.35666,131.85342 z m 0,-155.10162 c 29.74153,0.28386 53.77746,24.46172 53.77746,54.27421 0,29.8196 -24.03593,53.99745 -53.77746,54.28131 z M 1.2156702,256.61649 c 0,141.39114 114.6088598,256.0071 255.9999998,256.0071 141.38404,0 256,-114.61596 256,-256.0071 0,-141.38404 -114.61596,-255.99290181 -256,-255.99290181 C 115.82453,0.62358819 1.2156702,115.23245 1.2156702,256.61649 Z"
       id="center-6"
       fill="url(#linearGradient-1)"
       style="fill:#ca378f;fill-opacity:1" />
  </g>
</svg>
