<?xml version="1.0" encoding="UTF-8" standalone="no"?>
<svg
   height="48"
   viewBox="0 0 48 48"
   width="48"
   version="1.1"
   id="svg972"
   sodipodi:docname="virt-manager.svg"
   inkscape:version="1.1.2 (0a00cf5339, 2022-02-04)"
   xmlns:inkscape="http://www.inkscape.org/namespaces/inkscape"
   xmlns:sodipodi="http://sodipodi.sourceforge.net/DTD/sodipodi-0.dtd"
   xmlns:xlink="http://www.w3.org/1999/xlink"
   xmlns="http://www.w3.org/2000/svg"
   xmlns:svg="http://www.w3.org/2000/svg">
  <defs
     id="defs976" />
  <sodipodi:namedview
     id="namedview974"
     pagecolor="#ffffff"
     bordercolor="#666666"
     borderopacity="1.0"
     inkscape:pageshadow="2"
     inkscape:pageopacity="0.0"
     inkscape:pagecheckerboard="0"
     showgrid="false"
     inkscape:zoom="8.7083333"
     inkscape:cx="24"
     inkscape:cy="24"
     inkscape:window-width="1128"
     inkscape:window-height="679"
     inkscape:window-x="0"
     inkscape:window-y="37"
     inkscape:window-maximized="1"
     inkscape:current-layer="svg972" />
  <linearGradient
     id="a">
    <stop
       offset="0"
       stop-color="#292c2f"
       id="stop917" />
    <stop
       offset="1"
       stop-opacity="0"
       id="stop919" />
  </linearGradient>
  <linearGradient
     id="b"
     gradientTransform="matrix(2.8571429 0 0 2.7999946 -1209.9184 -1455.2316)"
     gradientUnits="userSpaceOnUse"
     x1="428.37143"
     x2="428.37143"
     y1="530.79797"
     y2="525.79797">
    <stop
       offset="0"
       stop-color="#da4453"
       id="stop922" />
    <stop
       offset="1"
       stop-color="#fa4e5f"
       id="stop924" />
  </linearGradient>
  <linearGradient
     id="c"
     gradientUnits="userSpaceOnUse"
     x1="33.999967"
     x2="33.999967"
     y1="31.000038"
     y2="17.000038">
    <stop
       offset="0"
       stop-color="#4d4d4d"
       id="stop927" />
    <stop
       offset="1"
       stop-color="#585858"
       id="stop929" />
  </linearGradient>
  <linearGradient
     id="d"
     gradientUnits="userSpaceOnUse"
     x1="31.999967"
     x2="31.999967"
     y1="31.000038"
     y2="17.000038">
    <stop
       offset="0"
       stop-color="#afb0b3"
       id="stop932" />
    <stop
       offset="1"
       stop-color="#bdc3c7"
       id="stop934" />
  </linearGradient>
  <linearGradient
     id="e"
     gradientUnits="userSpaceOnUse"
     x1="28.999967"
     x2="28.999967"
     y1="17.000038"
     y2="31.000038">
    <stop
       offset="0"
       stop-color="#31363b"
       id="stop937" />
    <stop
       offset="1"
       stop-color="#4d4d4d"
       id="stop939" />
  </linearGradient>
  <linearGradient
     id="f"
     gradientUnits="userSpaceOnUse"
     x1="25.999967"
     x2="25.999967"
     y1="17.000038"
     y2="31.000038">
    <stop
       offset="0"
       stop-color="#7f8c8d"
       id="stop942" />
    <stop
       offset="1"
       stop-color="#afb0b3"
       id="stop944" />
  </linearGradient>
  <linearGradient
     id="g"
     gradientUnits="userSpaceOnUse"
     x1="24"
     x2="24"
     y1="44"
     y2="4">
    <stop
       offset="0"
       stop-color="#bdc3c7"
       id="stop947" />
    <stop
       offset="1"
       stop-color="#eff0f1"
       id="stop949" />
  </linearGradient>
  <linearGradient
     id="h"
     gradientUnits="userSpaceOnUse"
     x1="17"
     x2="38.140625"
     xlink:href="#a"
     y1="17"
     y2="38.140625" />
  <linearGradient
     id="i"
     gradientUnits="userSpaceOnUse"
     x1="25"
     x2="41.563583"
     xlink:href="#a"
     y1="17"
     y2="33.563583" />
  <path
     id="circle954"
     style="fill:#fe4a6b;fill-opacity:1"
     d="M 24 4 A 20 20 0 0 0 4 24 A 20 20 0 0 0 24 44 A 20 20 0 0 0 44 24 A 20 20 0 0 0 24 4 z M 7 17 L 10 17 L 13.5 27 L 17 17 L 20 17 L 15 31 L 12 31 L 7 17 z M 23 17 L 26 17 L 29.5 26.800781 L 33 17 L 36 17 L 41 31 L 38 31 L 34.5 21.199219 L 31 31 L 28 31 L 24.5 21.199219 L 21 31 L 18 31 L 23 17 z " />
  <path
     d="m28 31h-3l-5-14h3zm10 0h-3l-5-14h3z"
     fill="url(#d)"
     id="path966"
     style="fill:#fe4a6b;fill-opacity:1" />
</svg>
