<?xml version="1.0" encoding="UTF-8" standalone="no"?>
<!-- Created with Inkscape (http://www.inkscape.org/) -->

<svg
   xmlns:dc="http://purl.org/dc/elements/1.1/"
   xmlns:cc="http://creativecommons.org/ns#"
   xmlns:rdf="http://www.w3.org/1999/02/22-rdf-syntax-ns#"
   xmlns:svg="http://www.w3.org/2000/svg"
   xmlns="http://www.w3.org/2000/svg"
   xmlns:sodipodi="http://sodipodi.sourceforge.net/DTD/sodipodi-0.dtd"
   xmlns:inkscape="http://www.inkscape.org/namespaces/inkscape"
   width="105.06646mm"
   height="105.06646mm"
   viewBox="0 0 105.06646 105.06646"
   version="1.1"
   id="svg8"
   sodipodi:docname="Zoom.svg"
   inkscape:version="0.92.5 (2060ec1f9f, 2020-04-08)">
  <defs
     id="defs2">
    <clipPath
       id="clipPath63"
       clipPathUnits="userSpaceOnUse">
      <path
         inkscape:connector-curvature="0"
         id="path61"
         d="M 2619,5238 C 4065.43,5238 5238,4065.43 5238,2619 5238,1172.57 4065.43,0 2619,0 1172.57,0 0,1172.57 0,2619 0,4065.43 1172.57,5238 2619,5238 Z" />
    </clipPath>
    <clipPath
       id="clipPath73"
       clipPathUnits="userSpaceOnUse">
      <path
         inkscape:connector-curvature="0"
         id="path71"
         d="M 2619,5187 C 4037.27,5187 5187,4037.27 5187,2619 5187,1200.73 4037.27,51 2619,51 1200.73,51 50.9961,1200.73 50.9961,2619 50.9961,4037.27 1200.73,5187 2619,5187 Z" />
    </clipPath>
    <clipPath
       id="clipPath83"
       clipPathUnits="userSpaceOnUse">
      <path
         inkscape:connector-curvature="0"
         id="path81"
         d="M 2619,4981 C 3923.5,4981 4981,3923.5 4981,2619 4981,1314.5 3923.5,257 2619,257 1314.5,257 257,1314.5 257,2619 c 0,1304.5 1057.5,2362 2362,2362 z" />
    </clipPath>
    <clipPath
       id="clipPath93"
       clipPathUnits="userSpaceOnUse">
      <path
         inkscape:connector-curvature="0"
         id="path91"
         d="M 1078,3359 V 2249 c 1,-251 206,-453 456,-452 h 1618 c 46,0 83,37 83,82 v 1110 c -1,251 -206,453 -456,452 H 1161 c -46,0 -83,-37 -83,-82 z m 2260,-433 668,488 c 58,48 103,36 103,-51 V 1875 c 0,-99 -55,-87 -103,-51 l -668,487 z" />
    </clipPath>
  </defs>
  <sodipodi:namedview
     id="base"
     pagecolor="#ffffff"
     bordercolor="#666666"
     borderopacity="1.0"
     inkscape:pageopacity="0.0"
     inkscape:pageshadow="2"
     inkscape:zoom="1.332703"
     inkscape:cx="160.55099"
     inkscape:cy="61.013135"
     inkscape:document-units="mm"
     inkscape:current-layer="zoom"
     showgrid="false"
     borderlayer="false"
     inkscape:window-width="2560"
     inkscape:window-height="1308"
     inkscape:window-x="1920"
     inkscape:window-y="27"
     inkscape:window-maximized="1" />
  <metadata
     id="metadata5">
    <rdf:RDF>
      <cc:Work
         rdf:about="">
        <dc:format>image/svg+xml</dc:format>
        <dc:type
           rdf:resource="http://purl.org/dc/dcmitype/StillImage" />
        <dc:title></dc:title>
      </cc:Work>
    </rdf:RDF>
  </metadata>
  <g
     inkscape:label="Zoom"
     inkscape:groupmode="layer"
     id="zoom"
     transform="translate(-55.125473,-82.109781)">
    <path
       style="fill:#00c0f7;fill-opacity:1;stroke-width:0.19588776"
       d="m 94.936684,106.09313 c -2.82798,0.003 -6.024694,0.008 -9.643337,0.0155 -27.771,0.0549 -28.017914,0.0589 -28.690755,0.45424 -0.373271,0.21929 -0.857647,0.70418 -1.076936,1.07745 -0.394208,0.67102 -0.398944,0.91141 -0.398944,21.34444 0,23.30907 -0.10255,21.64426 1.554946,25.17159 2.236091,4.75864 6.946722,8.22749 12.084531,8.89868 0.686538,0.0897 14.249924,0.15194 30.141311,0.13797 28.06883,-0.0247 28.91137,-0.0365 29.5119,-0.39997 0.33999,-0.20578 0.80509,-0.70664 1.03353,-1.11311 l 0.41547,-0.73898 -0.0574,-20.9243 c -0.064,-23.54054 0.0568,-21.6569 -1.60663,-25.03775 -1.9251,-3.91249 -5.42582,-6.89787 -9.53636,-8.13284 -2.19009,-0.65798 -3.93551,-0.77287 -23.731376,-0.75292 z m 63.696896,0.0103 c -0.17198,-0.0123 -0.37166,0.0571 -0.73278,0.19896 -0.42223,0.16585 -6.11227,4.20761 -12.64419,8.98188 0,0 -9.95857,6.10381 -11.09286,10.13891 -1.13429,4.03511 -0.73277,9.31416 -0.73277,9.31416 0,0 -0.14321,6.18444 1.06763,9.63972 0.58957,1.68237 3.30678,4.28036 3.30678,4.28036 2.37781,1.73148 7.69562,5.60744 11.81788,8.61291 4.12226,3.00548 7.8148,5.57449 8.20519,5.7087 0.84974,0.29213 1.36194,0.1351 1.89652,-0.58084 0.3947,-0.52861 0.39787,-0.74195 0.447,-27.10998 0.0536,-28.73762 0.0745,-28.11523 -0.97255,-28.89281 -0.24987,-0.18557 -0.39388,-0.27966 -0.56585,-0.29197 z"
       id="path-main"
       inkscape:connector-curvature="0"
       sodipodi:nodetypes="ssccsccsccccccscccsccccccccc" />
  </g>
</svg>
